<svg xmlns="http://www.w3.org/2000/svg" viewBox="0 0 151.15 151.15"><defs><style>.cls-1{fill:#1b4e8e;}.cls-2{fill:#c75fa4;}.cls-3{fill:#fff;}.cls-4{fill:#4b2a16;}</style></defs><title>overwatch_icons-all_heroes</title><g id="DVA"><rect class="cls-1" width="151.15" height="151.15" rx="14.53" ry="14.53"/><path class="cls-2" d="M46.41,123.39l12.34-11.66-5,17.83S46.91,128.06,46.41,123.39Z"/><path class="cls-2" d="M42.08,100.56H57.91l-15.83,9S39.25,102.39,42.08,100.56Z"/><path class="cls-2" d="M15.75,68.73S10.33,50,12,40.39L22.08,55Z"/><path class="cls-3" d="M30.41,47.56s-2.16,30.83,4.17,54.17H28.75s-13-22.17-13-33,5.83-21.17,9.41-21.17Z"/><path class="cls-2" d="M108.75,123.39,96.41,111.73l5,17.83S108.25,128.06,108.75,123.39Z"/><path class="cls-2" d="M113.08,100.56H97.25l15.83,9S115.91,102.39,113.08,100.56Z"/><path class="cls-2" d="M139.41,68.73s5.42-18.75,3.75-28.34L133.08,55Z"/><path class="cls-3" d="M124.75,47.56s2.16,30.83-4.17,54.17h5.83s13-22.17,13-33S133.58,47.56,130,47.56Z"/><path class="cls-4" d="M124.75,47.56a57.38,57.38,0,0,0-17.17-23.33c-12.83-10.5-30.83-10-30.83-10s-16.34-.5-29.17,10A57.38,57.38,0,0,0,30.41,47.56l-.26,5.83s2.43,2.67,3.26-1.5.67-10.83,12-20.83S72.08,19.73,76.75,19.73s21.66,1.33,33,11.33,11.16,16.67,12,20.83,3.25,1.5,3.25,1.5Z"/><path class="cls-4" d="M102.58,48.1S93.83,68.48,83.45,73.48c0,0,4.75-4.75,4.13-10,0,0-20,18.62-36.88,16.62,0,0,4.5-2.42,4.88-5.46,0,0-8.64,6.76-14.76,5.61V47.56s5-21.83,37.63-21.83,38.13,21.12,38.13,21.12V80.38A102.07,102.07,0,0,0,102.58,48.1Z"/></g></svg>