<svg xmlns="http://www.w3.org/2000/svg" viewBox="0 0 219.88 219.88"><defs><style>.cls-1{fill:#696049;}.cls-2,.cls-4,.cls-7{fill:#e09926;}.cls-3{fill:#99ca3d;}.cls-4,.cls-7{stroke:#66471b;stroke-miterlimit:10;}.cls-4{stroke-width:0.25px;}.cls-5{fill:#f5ec52;}.cls-6{fill:#66471b;}.cls-7{stroke-width:0.5px;}</style></defs><title>overwatch_icons-all_heroes</title><g id="Orisa"><rect class="cls-1" width="219.88" height="219.88" rx="14.6" ry="14.6"/><path class="cls-2" d="M71,78.34c0-.75,0-1.51.08-2.26.18-2.36.22-8.38-4.33-4.78C61.2,75.72,54.61,83,53.11,85.88S51.61,94.05,51.2,97s-2.5,1-1.67,5.41,4.19-4.08,10.72,4.84,8.2,12.83,8.2,12.83-1.09-19.92.83-26.17C70.78,89,71,81.42,71,78.34Z"/><path class="cls-3" d="M59,149.51s2.31-11.25-.31-16.25-8.13-18.38-12-17.56a42.43,42.43,0,0,0-6.88,2.06s4.75-15.25,11.44-13.31,8.06,1.62,7.62,6-2.37,4,2.5,10.12,10.18,13.69,6,19.81A37.93,37.93,0,0,1,59,149.51Z"/><path class="cls-3" d="M33.78,127.55s4.39-9.93,7.28-10.26,8.64-1.24,8.8,2.76-1.16,7.58.84,10.67,7.5,10.25,7.08,14.16,1.33,8.59-6.33,14.25S30.86,174.88,22.53,176c-3.28.42-8-1.87-12.56-4.81a4,4,0,0,1,2.25-7.35c3.52,0,6.78-.86,8.73-3.21C27,153.38,33.78,127.55,33.78,127.55Z"/><path class="cls-3" d="M51.52,93.72c-.11,1.22-.19,2.34-.32,3.25-.42,2.91-2.5,1-1.67,5.41s4.19-4.08,10.72,4.84,8.2,12.83,8.2,12.83-.4-7.28-.29-14.42c0-1.48-5.31-2.27-5-5.25C62.7,95.26,51.68,91.88,51.52,93.72Z"/><path class="cls-2" d="M150.41,78.34c0-.75,0-1.51-.08-2.26-.18-2.36-.22-8.38,4.33-4.78,5.58,4.42,12.17,11.67,13.67,14.58s1.5,8.17,1.91,11.09,2.5,1,1.67,5.41-4.19-4.08-10.72,4.84-8.2,12.83-8.2,12.83,1.09-19.92-.83-26.17C150.66,89,150.44,81.42,150.41,78.34Z"/><path class="cls-3" d="M162.43,149.51s-2.31-11.25.31-16.25,8.13-18.38,12-17.56a42.43,42.43,0,0,1,6.88,2.06s-4.75-15.25-11.44-13.31-8.06,1.62-7.62,6,2.37,4-2.5,10.12-10.18,13.69-6,19.81A37.93,37.93,0,0,0,162.43,149.51Z"/><path class="cls-3" d="M187.66,127.55s-4.38-9.93-7.27-10.26-8.65-1.24-8.81,2.76,1.16,7.58-.84,10.67-7.5,10.25-7.08,14.16-1.33,8.59,6.33,14.25,20.59,15.75,28.92,16.84c3.28.42,8-1.87,12.56-4.81a4,4,0,0,0-2.25-7.35c-3.51,0-6.78-.86-8.73-3.21C194.49,153.38,187.66,127.55,187.66,127.55Z"/><path class="cls-3" d="M169.92,93.72c.11,1.22.2,2.34.32,3.25.42,2.91,2.5,1,1.67,5.41s-4.19-4.08-10.72,4.84-8.2,12.83-8.2,12.83.4-7.28.29-14.42c0-1.48,5.31-2.27,5.05-5.25C158.74,95.26,169.76,91.88,169.92,93.72Z"/><path class="cls-4" d="M148.67,111.35a5.38,5.38,0,0,0-1.31-2.13Z"/><path class="cls-4" d="M149.41,112.55l-.74-1.2c1.25,3.38.74,8.71.74,12a15,15,0,0,1-15.15,14.75c-6.3,0-12.7-3.75-15-9.08H118c-.52,7.14-3,10.67-7.26,10.67s-6.74-3.53-7.26-10.67h-1.24c-2.28,5.33-8.68,9.08-15,9.08a15,15,0,0,1-15.15-14.75c0-3.78-.11-10.89,2.3-13.5l-3.34,4C66.64,119.1,69,121.65,69,128.46c0,15.75,13.93,28.93,32.62,32.34.21,3.28,1.2,9,5.54,9h7.75s5.44.36,6.17-9.07c18.5-3.51,32.25-16.62,32.25-32.27C153.28,121,154.74,118.11,149.41,112.55Z"/><path class="cls-4" d="M111.11,95.26a53.46,53.46,0,0,0-6.38.38h12.76A53.46,53.46,0,0,0,111.11,95.26Z"/><path class="cls-5" d="M108.24,144.09V144c0-.14-.47-13.75-5.31-19.55-7.43-8.91-14.59-13.25-21.9-13.25-7.7,0-11.29,5.19-11.29,16.34v.12H67.41v-.11c0-.33-2-32.54,12.08-38.5,11.92-5,26-5.44,30-5.44h2.54c4,0,18.11.39,30,5.44,14.08,6,12.1,38.17,12.07,38.5v.11h-2.33v-.12c0-11.15-3.59-16.34-11.29-16.34-7.31,0-14.48,4.34-21.91,13.25-4.83,5.8-5.29,19.41-5.3,19.55v.12Z"/><path class="cls-6" d="M112.05,83.7c4.22,0,18.12.41,30,5.43,14.17,6,12,38.38,12,38.38H152c0-8.54-2-16.46-11.42-16.46s-17,7.29-22,13.29S113.2,144,113.2,144h-4.84S108,130.24,103,124.34s-12.58-13.29-22-13.29S69.61,119,69.61,127.51H67.53s-2.17-32.38,12-38.38c11.86-5,25.77-5.43,30-5.43.82,0,1.27,0,1.27,0s.45,0,1.27,0m0-.25c-.81,0-1.26,0-1.28,0s-.45,0-1.26,0c-4,0-18.13.39-30.08,5.45-14.17,6-12.24,37.3-12.15,38.62l0,.24h2.56v-.25c0-11.06,3.55-16.21,11.17-16.21,7.27,0,14.4,4.32,21.81,13.2,4.8,5.77,5.27,19.34,5.27,19.47v.25h5.32V144c0-.13.47-13.7,5.27-19.47,7.4-8.88,14.54-13.2,21.81-13.2,7.62,0,11.17,5.15,11.17,16.21v.25h2.56l0-.24c.09-1.32,2-32.62-12.15-38.62-11.95-5.06-26-5.45-30.08-5.45Z"/><path class="cls-2" d="M148.33,90.88a1.18,1.18,0,0,1-.55-.14l-10.6-5.43a1.16,1.16,0,0,1-.62-.81c-.93-4.27-6.53-25.58-25.39-25.58h-.79C91.53,58.92,85.93,80.23,85,84.5a1.16,1.16,0,0,1-.62.81l-10.6,5.43a1.18,1.18,0,0,1-1.54-.39,1.16,1.16,0,0,1-.14-1.07,35,35,0,0,0,.66-21,1.18,1.18,0,0,1,0-.72c.5-1.47,2.81-6.88,11.94-14.72,6.51-5.59,14.72-8.42,20.46-9.81a23.91,23.91,0,0,1,11.24,0c5.74,1.39,13.95,4.22,20.46,9.81C146,60.71,148.3,66.12,148.8,67.59a1.18,1.18,0,0,1,0,.72,35,35,0,0,0,.66,21,1.16,1.16,0,0,1-.14,1.07,1.22,1.22,0,0,1-1,.53Z"/><path class="cls-6" d="M110.78,42.52a23.54,23.54,0,0,1,5.59.67c5.43,1.31,13.81,4.11,20.41,9.78,9.16,7.87,11.44,13.28,11.9,14.66a1,1,0,0,1,0,.64,35.13,35.13,0,0,0,.66,21,1.07,1.07,0,0,1-1,1.43,1.11,1.11,0,0,1-.49-.12l-10.6-5.43a1.07,1.07,0,0,1-.56-.73c-.79-3.6-6.37-25.67-25.51-25.67h-.79c-19.13,0-24.72,22.07-25.5,25.67a1.07,1.07,0,0,1-.56.73l-10.6,5.43a1.11,1.11,0,0,1-.49.12,1.07,1.07,0,0,1-1-1.43,35.13,35.13,0,0,0,.66-21,1,1,0,0,1,0-.64c.46-1.38,2.74-6.79,11.9-14.66,6.6-5.67,15-8.47,20.41-9.78a23.54,23.54,0,0,1,5.59-.67m0-.25a24.45,24.45,0,0,0-5.65.67c-5.75,1.39-14,4.23-20.51,9.84-9.15,7.86-11.48,13.29-12,14.77a1.33,1.33,0,0,0,0,.79A34.9,34.9,0,0,1,72,89.24a1.27,1.27,0,0,0,.15,1.18,1.33,1.33,0,0,0,1.71.43l10.59-5.43a1.31,1.31,0,0,0,.7-.89c.92-4.26,6.49-25.48,25.25-25.48h.79c18.77,0,24.34,21.22,25.26,25.48a1.33,1.33,0,0,0,.69.89l10.6,5.43a1.33,1.33,0,0,0,1.71-.43,1.27,1.27,0,0,0,.15-1.18,34.81,34.81,0,0,1-.66-20.9,1.25,1.25,0,0,0,0-.79c-.49-1.48-2.82-6.91-12-14.77-6.53-5.61-14.76-8.45-20.51-9.84a24.45,24.45,0,0,0-5.65-.67Z"/><path class="cls-2" d="M105.77,95.51a2.06,2.06,0,0,1-1.93-1.35,35.55,35.55,0,0,1-2-14.67l.79-11.2a2,2,0,0,1,2-1.9h12.9a2,2,0,0,1,2,1.9l.82,11.62A35.34,35.34,0,0,1,118.51,94a2.09,2.09,0,0,1-2,1.47Z"/><path class="cls-6" d="M117.52,66.64a1.78,1.78,0,0,1,1.79,1.66l.82,11.62a35.4,35.4,0,0,1-1.86,14l0,.09a1.8,1.8,0,0,1-1.7,1.21H105.77a1.79,1.79,0,0,1-1.69-1.18h0a35.28,35.28,0,0,1-2-14.58l.79-11.2a1.78,1.78,0,0,1,1.79-1.66h12.9m0-.5h-12.9a2.29,2.29,0,0,0-2.29,2.13l-.79,11.2a35.58,35.58,0,0,0,2.07,14.78,2.3,2.3,0,0,0,2.16,1.51h10.77a2.29,2.29,0,0,0,2.17-1.55l0-.08a35.71,35.71,0,0,0,1.89-14.24l-.82-11.62a2.29,2.29,0,0,0-2.29-2.13Z"/><path class="cls-5" d="M77.94,119.69l19.53,6.74A2.32,2.32,0,0,1,99,128.62v.87a2.32,2.32,0,0,1-3.06,2.2l-19.52-6.53a2.31,2.31,0,0,1-1.59-2.2v-1.07A2.32,2.32,0,0,1,77.94,119.69Z"/><path class="cls-5" d="M144,119.69l-19.53,6.74a2.3,2.3,0,0,0-1.56,2.19v.87a2.32,2.32,0,0,0,3,2.2l19.53-6.53a2.32,2.32,0,0,0,1.58-2.2v-1.07A2.32,2.32,0,0,0,144,119.69Z"/><polyline class="cls-7" points="101.57 160.8 105.7 153.01 110.78 153.01"/><polyline class="cls-7" points="121.11 160.8 116.98 153.01 110.78 153.01"/></g></svg>