<svg xmlns="http://www.w3.org/2000/svg" xmlns:xlink="http://www.w3.org/1999/xlink" viewBox="0 0 151.15 151.15"><defs><style>.cls-1{fill:#9f6fb0;}.cls-2{fill:#6e2e8d;}.cls-3{fill:url(#linear-gradient);}.cls-4{fill:url(#linear-gradient-2);}.cls-5{fill:#432645;}.cls-6{fill:#773393;}.cls-7{fill:none;stroke:#9d66ab;stroke-linecap:round;stroke-linejoin:round;stroke-width:2px;}</style><linearGradient id="linear-gradient" x1="100.31" y1="71.72" x2="118.98" y2="66.01" gradientUnits="userSpaceOnUse"><stop offset="0" stop-color="#421e57"/><stop offset="0.23" stop-color="#442059"/><stop offset="0.34" stop-color="#4c2660"/><stop offset="0.43" stop-color="#59306c"/><stop offset="0.5" stop-color="#6c3f7d"/><stop offset="0.57" stop-color="#845294"/><stop offset="0.62" stop-color="#9d66ab"/><stop offset="0.65" stop-color="#8b589a"/><stop offset="0.7" stop-color="#704382"/><stop offset="0.75" stop-color="#5c326f"/><stop offset="0.81" stop-color="#4d2761"/><stop offset="0.88" stop-color="#452059"/><stop offset="1" stop-color="#421e57"/></linearGradient><linearGradient id="linear-gradient-2" x1="-239.56" y1="66" x2="-258.23" y2="71.7" gradientTransform="matrix(-1, 0, 0, 1, -167.72, 0)" gradientUnits="userSpaceOnUse"><stop offset="0" stop-color="#421e57"/><stop offset="0.08" stop-color="#47225b"/><stop offset="0.18" stop-color="#552d68"/><stop offset="0.28" stop-color="#6c3f7e"/><stop offset="0.38" stop-color="#8c599c"/><stop offset="0.43" stop-color="#9d66ab"/><stop offset="0.48" stop-color="#835193"/><stop offset="0.54" stop-color="#6b3f7d"/><stop offset="0.6" stop-color="#59306c"/><stop offset="0.68" stop-color="#4c2660"/><stop offset="0.79" stop-color="#442059"/><stop offset="1" stop-color="#421e57"/></linearGradient></defs><title>overwatch_icons-all_heroes</title><g id="Sombra"><rect class="cls-1" width="151.15" height="151.15"/><path class="cls-2" d="M124,29.66a6.3,6.3,0,0,1,1.53,2.06,2.87,2.87,0,0,1-.75,3.27c-2.26,2-7.27,6.17-12.19,7.41a.52.52,0,0,1-.6-.66A27.59,27.59,0,0,1,120,29.62,2.94,2.94,0,0,1,124,29.66Z"/><path class="cls-2" d="M128.52,42.34a4.68,4.68,0,0,1,1.22,1.47,1.87,1.87,0,0,1-.6,2.32c-1.81,1.45-5.84,4.37-9.79,5.25a.39.39,0,0,1-.49-.47,19.45,19.45,0,0,1,6.49-8.59A2.61,2.61,0,0,1,128.52,42.34Z"/><path class="cls-2" d="M100.83,97a5.12,5.12,0,0,0-3.91,0,2.8,2.8,0,0,1-1.85,0,5.12,5.12,0,0,0-3.91,0c-2.29,1.1-5.5-.62-5.5-.62,0,2.15,1.45,3.73,3.27,4.87a13.3,13.3,0,0,0,13.83-.07c1.95-1.17,3.57-2.76,3.57-4.8C106.33,96.37,103.12,98.09,100.83,97Z"/><path class="cls-3" d="M101.13,74.4A25,25,0,0,1,115,64.32,15.69,15.69,0,0,1,119.57,68a7.76,7.76,0,0,0-1.65-.16C111.94,67.81,103.29,73,101.13,74.4Z"/><path class="cls-2" d="M114.89,64.47a16.84,16.84,0,0,1,4.37,3.31,9.52,9.52,0,0,0-1.34-.09c-5.69,0-13.54,4.54-16.33,6.27a24.88,24.88,0,0,1,13.3-9.49m0-.27A24.94,24.94,0,0,0,100.7,74.83s10.33-6.89,17.22-6.89a8.15,8.15,0,0,1,2,.22s-1.06-1.77-4.94-4Z"/><path class="cls-4" d="M89.69,74.4C87.53,73,78.88,67.81,72.9,67.81a8.5,8.5,0,0,0-1.65.15A15.94,15.94,0,0,1,76,64.31,25.38,25.38,0,0,1,89.69,74.4Z"/><path class="cls-2" d="M75.93,64.47A24.82,24.82,0,0,1,89.23,74c-2.79-1.73-10.64-6.27-16.33-6.27a9.52,9.52,0,0,0-1.34.09,16.84,16.84,0,0,1,4.37-3.31m0-.27c-3.88,2.19-4.94,4-4.94,4a8.15,8.15,0,0,1,2-.22c6.89,0,17.22,6.89,17.22,6.89A24.94,24.94,0,0,0,75.89,64.2Z"/><path class="cls-5" d="M93.7,51.74s-3.17-7.66-13.17-7.66S69.12,59.91,69.12,65.49,70.78,79.91,73,83.58a23.27,23.27,0,0,1,3.59,13.25c0,5.83-1,7.91-3,9.58s1.5,10.17-.59,14.33S64.45,138.24,51,143.66a167.77,167.77,0,0,1-27.5,8.58s8.5-3.91,10.17-6.41S27,143.49,27,143.49s16.42-.25,26-8.33,13.09-11.83,11.84-17.67c0,0-8.25,10.25-24.5,9.59a45.19,45.19,0,0,1-37-21.25s6.08,5.5,9.58,5.83,1-6.33,1-6.33S18.87,116,31.2,116s19.92-5.5,23-12.75,2.5-18.91-3.33-25.16S41.37,57,45.87,47,62.2,18.08,78,8.08s16.92-8.92,21.67,0c0,0,12.33-2.67,10,9.16s-4,15.71-4,18c0,0-3.06-2.43-3.63-3.5,0,0-1.25,11-2.5,14.13,0,0-2.12-3.77-3.68-3.48S95,46.53,93.7,51.74Z"/><path class="cls-6" d="M58.26,69.31h0a33.73,33.73,0,0,1,.18-6.51,37.35,37.35,0,0,1,1.31-6.67,8.32,8.32,0,0,1,3.88-4c-.08.7-.21,1.51-.37,2.35a38.18,38.18,0,0,0,1.07,18.08l.51,1.69c1.54,5,4.69,10.13,7.2,14.73A1,1,0,0,0,74,88.51a21.27,21.27,0,0,0-2-6.87l-.3-1.15A17.46,17.46,0,0,0,73,83.58a23.27,23.27,0,0,1,3.59,13.25c0,5.83-1,7.91-3,9.58s1.5,10.17-.59,14.33S64.45,138.24,51,143.66a167.77,167.77,0,0,1-27.5,8.58s8.5-3.91,10.17-6.41S27,143.49,27,143.49s16.42-.25,26-8.33,13.09-11.83,11.84-17.67c0,0-.36.9-3,2.82-1.13.83-2.24,13.39-18.57,17.77,9-10.25,8.6-12.48,8.6-12.48a33.79,33.79,0,0,1-11.56,1.48,45.19,45.19,0,0,1-37-21.25s6.08,5.5,9.58,5.83,1-6.33,1-6.33S18.87,116,31.2,116s19.92-5.5,23-12.75,2.5-18.91-3.33-25.16S41.37,57,45.87,47c1.1-2.46,5.66-6.22,11.87-10.32l-.2.85a24.22,24.22,0,0,1-2.6,6.55c-1.49,2.63-2.23,3.74-2.78,6.46a40.82,40.82,0,0,0-.07,10.39,21,21,0,0,0,3.28,8.47l.49.52A1.43,1.43,0,0,0,58.26,69.31Z"/><path class="cls-7" d="M52.78,45.49c-4.92,14.29-1.44,15,3.86,41.09C62.22,114,31.45,122,21,113.36"/><path class="cls-7" d="M60.49,74.83s8.16,20.9,5.38,27.62c-1.77,4.28-8.5,13.13-16.63,17.13S29,122.33,24,117.08s-9.75-15.88-9.75-15.88-1.5,7.63,0,9.38c0,0-7.87,0-11.25-5.63,0,0,6.75,17.38,22.88,21.13s25.62,0,25.62,0S44,135.2,42.74,137.7s15-4.37,21.71-20.21c0,0-1.89,23.65-33.39,24.4,0,0-6.19,1.44,1.93,2.69,0,0-5.06,6.06-11.93,7.31,0,0,34.37.35,50.43-26.69,0,0,3-5.5,2.13-17.12,0,0,7.46-10.25-.59-24.5"/></g></svg>