<svg id="Mei" xmlns="http://www.w3.org/2000/svg" viewBox="0 0 151.15 151.15"><defs><style>.cls-1{fill:#7db2cb;}.cls-2{fill:#efe9ab;}.cls-3{fill:#fff;stroke:#231f20;stroke-miterlimit:10;stroke-width:0.13px;}.cls-4{fill:#f0583e;}.cls-5{fill:#22130c;}.cls-6{fill:#231f20;}</style></defs><title>overwatch_icons-all_heroes</title><rect class="cls-1" width="151.15" height="151.15"/><path class="cls-2" d="M64.82,147.43a30.68,30.68,0,0,0,33-4.33s1,2.64,0,3.65c0,0,25.67-11.15,27.67-15.82,0,0-.5,3.67-2,4.67,0,0,18-6.5,18.5-22.67,0,0,2.17.34,2,1.5,0,0,2.5-13-4.17-22.16a5.2,5.2,0,0,1,3.34,0s-5-10.84-17.34-13.34c0,0-2.33-7.33-7.66-6s-8.67,26.34-19.34,32S88,110.1,85.66,114.27s-6.5,6.16-8.67,6-6.67-3.17-8.5-6.5-3.5-3.5-6.33-3.5-1.34-4.17-6.5-5.34-5-1.66-7.84-7.83-8.5-21.33-13.5-19.67S18.32,86.6,17,88.77c0,0,5.33,1.66,2.17,2.83s-7,4.5-8,11.67-1.5,12,1.5,16.33,6.83,11.83,14.83,12.17,37.33,20.5,37.33,20.5S63,147.93,64.82,147.43Z"/><rect class="cls-3" x="30.99" y="28.02" width="26.73" height="4.25"/><polygon class="cls-3" points="123.74 23.77 115.11 23.77 115.11 18.64 109.18 18.64 109.18 23.77 94.61 23.77 94.61 28.02 109.18 28.02 109.18 34.02 115.11 34.02 115.11 28.02 123.74 28.02 123.74 23.77"/><circle class="cls-4" cx="122.18" cy="25.83" r="6.44"/><path class="cls-5" d="M52.16,98.1l1.66,4.83S40.49,88.1,39.49,82.1a10.08,10.08,0,0,0-2.33,4.33s-5.84-31.66,4.66-45.16S58.16,23.93,58.16,23.93s-5-3.89-1.5-16.66c0,0,4.16,8.5,7.16,8.66,0,0-3.33-8.16,0-14.33,0,0,2.5,7.5,7.34,6.67s18.66-2.5,18.33,9.16c0,0,18.67,6.17,20.33,25.5,0,0,15.67,16,4.84,37.34,0,0,1-5.67-1-6.17,0,0-1.67,19.67-14,28,0,0,11.33-30,3.5-32.17l-.17-7.5a16.32,16.32,0,0,1-3-7.33s-2.67,9.33-20.5,7.5c0,0,9.5-4.33,8.5-8.17,0,0-9.17,9.34-28,10.17,0,0,6.17-3.5,5.5-6,0,0-4.5,4.67-15.17,7.33,0,0-4.33,18.17,4.5,33.34C54.82,99.27,53.32,100.1,52.16,98.1Z"/><path class="cls-6" d="M105.49,66.35H82.27a2,2,0,0,0-1.64.83l-1.7,2.34a2,2,0,0,1-1.63.83H75.45a2,2,0,0,1-1.65-.85l-1.62-2.3a2,2,0,0,0-1.65-.85H49.16V71.6l2,.08s-.34,12,12,12c8.93,0,10.83-5,11.19-7.76a2,2,0,0,1,2-1.77,2,2,0,0,1,2,1.71c1.12,8.68,10.82,7.79,10.82,7.79,13.58,0,12.25-12.08,12.25-12.08h4.08ZM63.2,81.27C54.49,81.27,55.66,69,55.66,69H70.74S71.91,81.27,63.2,81.27Zm26.83,0C81.32,81.27,82.49,69,82.49,69H97.57S98.74,81.27,90,81.27Z"/></svg>