<svg xmlns="http://www.w3.org/2000/svg" viewBox="0 0 189.93 189.93"><defs><style>.cls-1{fill:#464648;}.cls-2{fill:#f69d32;}.cls-3{fill:#c2bdbb;}.cls-4{fill:none;stroke:#231f20;stroke-miterlimit:10;}</style></defs><title>overwatch_icons-all_heroes</title><g id="Reinhardt"><rect class="cls-1" width="189.93" height="189.93"/><ellipse class="cls-2" cx="95.23" cy="106.33" rx="21.69" ry="25.19"/><path class="cls-3" d="M134,87.3,129.48,37l-5.86,5.86a11.32,11.32,0,0,0-3.3,8V73.14c-2.88,3.19-8.09-.22-11.47-3.09a9.05,9.05,0,0,1-3.17-7C105.89,30,95.23,4.8,95.23,4.8S84.58,30,84.79,63.09a9.05,9.05,0,0,1-3.17,7c-3.38,2.87-8.59,6.28-11.47,3.09V50.81a11.32,11.32,0,0,0-3.3-8L61,37,56.48,87.3l4.61,4.9A2.92,2.92,0,0,1,59.8,97l-2.15.65V111.8l3.08,3.09v1.62A4.43,4.43,0,0,0,64,120.77c2.3.63,5,1.85,5,4,0,3.84.84,16.34.84,16.34l13.42,22a1.12,1.12,0,0,0,1.75.21l7-7a1.11,1.11,0,0,0,.33-.79V122.64L78.48,111.47s-6.5,1.83-7-6.33c0,0,2.17-.34,10.42,4.66s13.33,7.5,13.33,7.5,5.09-2.5,13.34-7.5S119,105.14,119,105.14c-.5,8.16-7,6.33-7,6.33L98.15,122.64v32.87a1.11,1.11,0,0,0,.33.79l7,7a1.12,1.12,0,0,0,1.75-.21l13.42-22s.83-12.5.83-16.34c0-2.18,2.7-3.4,5-4a4.42,4.42,0,0,0,3.25-4.26v-1.62l3.09-3.09V97.64L130.67,97a2.92,2.92,0,0,1-1.29-4.79Z"/><path class="cls-4" d="M92,156.3a1.11,1.11,0,0,0,.33-.79V122.64L78.48,111.47s-6.5,1.83-7-6.33c0,0,2.17-.34,10.42,4.66s13.33,7.5,13.33,7.5,5.09-2.5,13.34-7.5S119,105.14,119,105.14c-.5,8.16-7,6.33-7,6.33L98.15,122.64v32.87a1.11,1.11,0,0,0,.33.79"/></g></svg>