<svg xmlns="http://www.w3.org/2000/svg" viewBox="0 0 151.15 151.15"><defs><style>.cls-1{fill:#d3ad4f;}.cls-2{fill:#c1bbc2;}.cls-3{fill:#6c727a;}.cls-4{fill:#bfbdc0;}.cls-5{fill:#686e75;}.cls-6{fill:#deb84a;}.cls-7,.cls-9{fill:none;stroke-linecap:round;stroke-miterlimit:10;}.cls-7{stroke:#deb84a;}.cls-8{fill:#f79c39;}.cls-9{stroke:#f79c39;}</style></defs><title>overwatch_icons-all_heroes</title><g id="Roadhog"><rect class="cls-1" width="151.15" height="151.15"/><path class="cls-2" d="M71.37,37.58S74,36.39,68,35.64a33.55,33.55,0,0,0-5.78-.31,2.16,2.16,0,0,1-2.26-2l-.29-4.23a2.16,2.16,0,0,1,2.16-2.32l6.42.37c.45,0,.48-.33.3-.84A30.23,30.23,0,0,1,66.6,15.15l0-.38L70.81,16s8.06-11.88,8.06-17.5c0,0,3.37,8.87,3.12,9.75S84.87,9,87,5,90.74.14,90.74.14,88.49,19.7,92.62,18.05a41.33,41.33,0,0,1,5.87-2s-5.37,6.12-6.25,12.12-3,8.75-8,8.75S71.37,37.58,71.37,37.58Z"/><path class="cls-3" d="M70.81,41.77s-1.32-7.38,1.81-8.25,9.75-2.13,11.87,1,1,8.23,1,8.23Z"/><ellipse class="cls-4" cx="76.43" cy="86.62" rx="33.62" ry="47.31"/><ellipse class="cls-5" cx="76.43" cy="95.95" rx="35.44" ry="47.31"/><path class="cls-5" d="M41.19,90.9s-3.74,4.75-1.32,20.37S55,108.08,50,98.92,41.19,90.9,41.19,90.9Z"/><path class="cls-5" d="M111.23,90.9s3.75,4.75,1.33,20.37-15.17-3.19-10.17-12.35S111.23,90.9,111.23,90.9Z"/><ellipse class="cls-6" cx="52.84" cy="78.09" rx="13.47" ry="6.97" transform="translate(-37.53 104.99) rotate(-72.49)"/><ellipse class="cls-2" cx="51.81" cy="78.2" rx="9.79" ry="5.07" transform="translate(-38.36 104.09) rotate(-72.49)"/><ellipse class="cls-6" cx="100.21" cy="78.09" rx="6.97" ry="13.47" transform="translate(-18.85 33.77) rotate(-17.51)"/><ellipse class="cls-2" cx="101.24" cy="78.2" rx="5.07" ry="9.79" transform="translate(-18.84 34.08) rotate(-17.51)"/><path class="cls-7" d="M71,95.59l-.51-.65a2.4,2.4,0,0,0-3.84.11L64,98.92"/><path class="cls-7" d="M81,95.59l.51-.65a2.4,2.4,0,0,1,3.84.11l2.73,3.87"/><path class="cls-7" d="M56.49,93.39s7.5-19.87,20-24.62"/><path class="cls-7" d="M96.49,93.39s-7.5-19.87-20-24.62"/><path class="cls-5" d="M43.7,109.08s-13.75-1.37-15.37,7,2.87,18.13,6.25,22.13,4.87,7,11.62,4.12S64,134.12,64,134.12Z"/><path class="cls-5" d="M110.4,110.14s13.75-1.37,15.38,7-2.88,18.13-6.25,22.13-4.88,7-11.63,4.12-17.75-8.21-17.75-8.21Z"/><path class="cls-8" d="M43.15,146.7a3.76,3.76,0,0,1-1.29-.24A2.11,2.11,0,0,1,40.45,144c.22-.75-1.83-2.56.8-1.65.38.13,1.36-.2,1.35-.6-.11-3.19-2.09-10.9-7.32-19.52-3.32-5.48-4.88-5.62-4.9-5.62h0c-.22-.09-.62.29-.74.89-.23,1.08-1,2.09-2.08,1.88s-1.56.87-1.65-1.24c0-.42.76-4.93,3.79-5.47,2.75-.49,5.61,1.89,9,7.48,5.75,9.49,9.86,22,6.81,25.52A3.07,3.07,0,0,1,43.15,146.7Z"/><path class="cls-8" d="M42.24,145.64c-.24,0-.79.64-1,.51C27.35,138.47,25.73,118.77,25.91,118c.4-1.64.91-.82,1.73-.88s2.27-.71,1.94.69c-.48,2-.75,17.59,11.67,24.47.73.41,2.71,1.84,2.31,2.57A1.52,1.52,0,0,1,42.24,145.64Z"/><path class="cls-8" d="M111.51,146.7a3.82,3.82,0,0,0,1.3-.24,2.12,2.12,0,0,0,1.41-2.51c-.23-.75,1.83-2.56-.81-1.65-.37.13-1.36-.2-1.34-.6.1-3.19,2.09-10.9,7.31-19.52,3.32-5.48,4.88-5.62,4.9-5.62h0c.23-.09.62.29.75.89.22,1.08,1,2.09,2.08,1.88s1.56.87,1.64-1.24c0-.42-.76-4.93-3.79-5.47-2.75-.49-5.61,1.89-9,7.48-5.75,9.49-9.85,22-6.8,25.52A3,3,0,0,0,111.51,146.7Z"/><path class="cls-8" d="M112.42,145.64c.25,0,.8.64,1,.51,13.87-7.68,15.48-27.38,15.3-28.13-.39-1.64-.9-.82-1.73-.88s-2.26-.71-1.93.69c.47,2,.74,17.59-11.68,24.47-.72.41-2.7,1.84-2.3,2.57A1.5,1.5,0,0,0,112.42,145.64Z"/><path class="cls-9" d="M46.12,112.14S57.37,124.89,57,134.89"/><path class="cls-9" d="M106.46,112.14s-11.25,12.75-10.87,22.75"/></g></svg>