<svg xmlns="http://www.w3.org/2000/svg" viewBox="0 0 151.15 151.15"><defs><style>.cls-1{fill:#d094c2;}.cls-2{fill:#fff;}.cls-3{fill:#ce68a8;}</style></defs><title>overwatch_icons-all_heroes</title><g id="Zarya"><rect class="cls-1" width="151.15" height="151.15" rx="14.16" ry="14.16"/><path class="cls-2" d="M40,95.87l-7-4.14a.22.22,0,0,0-.31.28l4.16,9.87a4.09,4.09,0,0,1,.24,2.42c-.93,4.64-4.11,20.92-3.88,26.71a.22.22,0,0,0,.41.09l10.65-18.53a4.15,4.15,0,0,1,5.2-1.77l7.93,3.3a.21.21,0,0,0,.26-.32l-6.54-9.36a4.14,4.14,0,0,1-.55-3.66L54.23,89.5a.22.22,0,0,0-.33-.24l-9.45,6.47A4.16,4.16,0,0,1,40,95.87Z"/><path class="cls-3" d="M27.26,116.89s-10.83-11-6.16-46.16c0,0,4.16,10.16,10.83,12.5,0,0,1.17,4.5-2.5,9.5S27.26,116.89,27.26,116.89Z"/><path class="cls-3" d="M39.43,85.73s-13.5-12.34-16-17.34c0,0-.33-24.66,8-30.5s16.5-12.83,16.5-12.83a81.76,81.76,0,0,0-4.5,9.83c-1.67,4.67-3.67,10.84-1.67,10.84s5-10.84,20-13.34,27.17.5,33.34-3.66,9.16-6.17,9.16-6.17-4.16,15-12.5,17c0,0,16.34,4.17,30.84-4.17a94.49,94.49,0,0,0,24.16-20.5s-.83,21.67-11.66,30-10.84,9.67-10.84,9.67,15.67-2.17,20.5-8.33c0,0-3,12.66-12.16,18.66s-17,4.67-17,4.67,7,4.33,7,11.33-.84,21.5-.84,21.5-5-24.33-15.66-24.83L93.74,87.89v-7.5s-7,7.32-16.14,8.83a11.1,11.1,0,0,0,4.5-8.83S72.26,92.73,60.93,91.73s-19.67-18-19.67-18S36.76,74.06,39.43,85.73Z"/><path class="cls-3" d="M104.76,121.23s5.34-4.34,7-16.34,0-17.5-3.5-20.33-8.66-1.5-7.83,2.17S109.43,95.89,104.76,121.23Z"/></g></svg>