<svg xmlns="http://www.w3.org/2000/svg" viewBox="0 0 151.15 151.15"><defs><style>.cls-1{fill:#a2a1a0;}.cls-2{fill:#696c71;}.cls-3{fill:#ebde4d;}.cls-4{fill:#fff;}</style></defs><title>overwatch_icons-all_heroes</title><g id="Mercy"><rect class="cls-1" width="151.15" height="151.15" rx="14.25" ry="14.25"/><polygon class="cls-2" points="107.93 107.6 98.3 111.35 98.3 105.1 106.05 101.1 104.05 84.02 115.01 94.69 107.93 107.6"/><polygon class="cls-2" points="49.2 107.6 58.82 111.35 58.82 105.1 51.07 101.1 53.07 84.02 42.12 94.69 49.2 107.6"/><path class="cls-2" d="M97.72,113.85,97,118.08a20.57,20.57,0,0,1-14.87,16.71,16.05,16.05,0,0,1-3.35.56,16,16,0,0,1-3.34-.56A20.59,20.59,0,0,1,60.6,118.08l-.67-4.23L51,110.94a35.57,35.57,0,0,0,12.77,18.91c4.75,4,9.38,7.75,15.06,7.75s10.32-3.79,15.07-7.75a35.57,35.57,0,0,0,12.77-18.91Z"/><path class="cls-3" d="M45.8,47.48,35.43,55.6s.75-16.37,14.75-27.25,23.62-10,29-10S102.43,20.46,113.3,37s8.75,18.76,8.75,51.38h-5.62V76.85L112.24,81V70.6l3.91-3.9s2.4-11-2.85-18.85S100.59,24.1,78.82,24.1,45.8,39.35,45.8,47.48Z"/><path class="cls-4" d="M52.43,39l7.5-8.13a23.61,23.61,0,0,1,10.62,1.38l.88-6.63S95.3,23.35,106.8,43.73c5.38,9.61,5.31,11.25,5.38,21.25s0,20,0,20l10,15.87S98.8,89.35,95.3,69.35c0,0-1.5-.12-1.37,4A28.62,28.62,0,0,1,86.8,66.6S80.18,67.73,70.55,84s-20.62,28.25-25,31.62a60.5,60.5,0,0,0,6.88-27.25S29.55,114.73,13.05,115A29.74,29.74,0,0,0,28.3,92.1c1.88-16.5,1.5-26.75,5.63-30.5s14.5-14.12,14.5-14.12,2.87,2.25,8.12-.63,6.13-2.5,6.13-2.5S52.43,42,52.43,39Z"/><path class="cls-4" d="M82.43,15.48h10L95.8,8.35S83.93,11.35,82.43,15.48Z"/><path class="cls-4" d="M48.05,26.73l-5,5.25s-5.25-7.38-5-9.25C38.05,22.73,46.58,24.58,48.05,26.73Z"/><polygon class="cls-4" points="109.55 26.73 120.8 26.73 115.18 36.1 109.55 26.73"/></g></svg>