<svg xmlns="http://www.w3.org/2000/svg" viewBox="0 0 151.15 151.15"><defs><style>.cls-1{fill:#52853d;}.cls-2{fill:#c2db71;}.cls-3{fill:#5b9441;}.cls-4{fill:#686e76;}.cls-5{fill:#c2bdbb;}</style></defs><title>overwatch_icons-all_heroes</title><g id="Genji"><rect class="cls-1" width="151.15" height="151.15" rx="14.39" ry="14.39"/><path class="cls-2" d="M77.18,106.91c-6.53-3.58-22.91-13.17-24-16.71-1.41-4.48-1.86-6.44-1.86-6.46l0-.15L39.94,73.13l2.17-3.7c3.82,4,28.52,29.3,35.07,29.3s31.28-25.64,35.26-29.8l2,4.18L103,83.65l0,.25s0,1.33-1.84,6.27C99.41,94.91,79.58,105.62,77.18,106.91Z"/><path class="cls-3" d="M112.3,69.8,113.83,73l-11,10.13-.36.34,0,.46c0,.16-.08,1.55-1.81,6.08-1.34,3.52-14.64,11.6-23.56,16.34C68.37,101.51,54.57,93,53.63,90.05c-1.4-4.45-1.85-6.4-1.85-6.42l-.07-.3-.23-.21L40.57,73l1.64-2.79c5.49,5.68,28.41,29,35,29S106.63,75.72,112.3,69.8m.27-1.74S84,98.23,77.18,98.23,42,68.61,42,68.61L39.3,73.23,50.8,83.85s.44,1.94,1.88,6.5,24.5,17.13,24.5,17.13,22.5-11.88,24.5-17.13,1.87-6.5,1.87-6.5l11.5-10.62-2.48-5.17Z"/><path class="cls-4" d="M24.55,16.48l8.5,48.12,18-6.25,24.5,19.38L119.18,58l9.12-41.5L115.59,35.7a1.07,1.07,0,0,1-2-.48l-.94-9.12L76.43,9.6,40.8,25.48l-1,10.13a1.08,1.08,0,0,1-2,.5Z"/><path class="cls-5" d="M123.19,53.92,109.05,40.23,100.93,48,77.18,18.6,53.43,48,45.3,40.23,31.17,53.92,29.68,76.48,37.8,63.85S66.3,94.73,77.18,98.23c10.87-3.5,39.37-34.38,39.37-34.38l8.13,12.63Z"/><path class="cls-5" d="M115.05,73.23l-11.5,10.62-1.87,6.5c-5.88,6.88-24.5,17.13-24.5,17.13S58.55,97.23,52.68,90.35l-1.88-6.5L39.3,73.23,33.05,81.6l3.13,16.63,7.25-1L50.3,119.1l26.88,21.5,26.87-21.5,6.88-21.87,7.25,1L121.3,81.6Z"/></g></svg>