<svg xmlns="http://www.w3.org/2000/svg" viewBox="0 0 151.15 151.15"><defs><style>.cls-1{fill:#355025;}.cls-2{fill:#647967;}.cls-3{fill:#c0babf;}.cls-4{fill:#616c64;}.cls-5{fill:#4fc5d7;}.cls-6{fill:#231f20;}.cls-7{fill:#eae24c;}.cls-8{fill:#fff;}.cls-13,.cls-9{fill:#f69e28;}.cls-10,.cls-11,.cls-12{fill:none;}.cls-10{stroke:#fff;}.cls-10,.cls-11{stroke-linecap:round;}.cls-10,.cls-11,.cls-12,.cls-13{stroke-miterlimit:10;}.cls-11,.cls-12,.cls-13{stroke:#231f20;}.cls-11{stroke-width:2px;}.cls-12{stroke-width:0.25px;}.cls-13{stroke-width:0.13px;}</style></defs><title>overwatch_icons-all_heroes</title><g id="Bastion"><rect class="cls-1" width="151.15" height="151.15"/><polygon class="cls-2" points="89.15 72.77 20.55 72.77 16.77 76.55 16.77 134.65 20.78 138.67 88.92 138.67 92.64 134.94 92.64 76.26 89.15 72.77"/><polygon class="cls-3" points="21.39 65.92 21.39 139.62 28 146.23 36.5 146.23 44.08 138.65 44.11 138.67 64.72 138.67 64.75 138.65 72.33 146.23 81.52 146.23 87.77 139.98 87.77 58.35 28.95 58.35 21.39 65.92"/><rect class="cls-4" x="40.84" y="65.94" width="27" height="48.92"/><polygon class="cls-5" points="49.09 107.98 49.1 106.61 47.74 106.63 47.74 71.67 49.08 71.68 49.09 70.32 59.67 70.32 59.67 71.67 61.03 71.67 61.03 106.63 59.67 106.63 59.67 107.98 49.09 107.98"/><path class="cls-6" d="M49.21,70.44H59.54V71.8h1.37v34.7H59.54v1.36H49.22v-1.37H47.86V71.8h1.35V70.44M49,70.19v1.36H47.61v35.21l1.36,0v1.37H59.79v-1.36h1.37V71.55H59.79V70.19Z"/><polygon class="cls-4" points="40.84 65.94 47.61 52.19 61.68 52.19 67.85 65.94 40.84 65.94"/><polygon class="cls-4" points="40.84 114.85 44.85 121.52 63.85 121.52 67.85 114.85 40.84 114.85"/><g id="Bird"><path class="cls-7" d="M127.64,34.56c-6.87,1.88-14.37,7-23.12,5.13S92.39,27.44,83,26.81s.62-6.87-8.75-12.75l1.16-8.24a.22.22,0,0,0-.37-.18l-6.42,6.42s-6.22-.25-7.48,6-2.74,8.25,0,10.38-2,14,7.36,22.12c7.4,6.42,14.1,7.53,20.41,7.28a8.83,8.83,0,0,0,2.25,1.72c2.5.84,10,1.17,11.25-.54s-1.34-5.41.65-7.33a6.19,6.19,0,0,1,3.94-1.5c4-.18,6.38-.11,7.43,0a.14.14,0,0,0,.08-.26c-1.78-.93-6.54-3.63-1.89-3.94,5.63-.38,21.88-2.88,23.13-6.63S134.52,32.69,127.64,34.56Z"/><path class="cls-8" d="M86.18,57.89c-5.5-.19-11.32-1.79-17.66-7.29S62.3,37.7,62.19,33c0,0,9.91-.85,11.16,5.24s4.67,9,7.5,11.08S86.18,57.89,86.18,57.89Z"/><path class="cls-9" d="M68.48,24.91a3.28,3.28,0,0,1-3.15,3.4c-1.73,0-2.21-.51-3.35-2.83.53-1.88,1.62-4,3.35-4A3.28,3.28,0,0,1,68.48,24.91Z"/><path class="cls-10" d="M78.39,42.45s8.25,1.34,12.56-.72c0,0-1.28-8.16-6.09-11.1"/><path class="cls-11" d="M80,43.92s8.38.81,12.69-1.25c0,0-.75-8.82-5.56-11.75"/><path class="cls-12" d="M67.74,21.15a3.09,3.09,0,0,1,3.34-3,2.63,2.63,0,0,1,2.73,1.71A3.23,3.23,0,0,1,73.24,23a2.93,2.93,0,0,1-2.33,1.08"/><circle class="cls-6" cx="70.91" cy="21.06" r="2.21"/><path class="cls-8" d="M70.91,19.35a1.72,1.72,0,1,1-1.71,1.71,1.71,1.71,0,0,1,1.71-1.71m0-1a2.72,2.72,0,1,0,2.71,2.71,2.72,2.72,0,0,0-2.71-2.71Z"/><path class="cls-13" d="M62,25.48s.87.44,4.93,0"/></g><line class="cls-12" x1="40.84" y1="65.94" x2="67.85" y2="65.94"/><line class="cls-12" x1="40.84" y1="114.85" x2="67.85" y2="114.85"/></g></svg>