<svg xmlns="http://www.w3.org/2000/svg" viewBox="0 0 151.15 151.15"><defs><style>.cls-1{fill:#282828;}.cls-2{fill:#6f7479;}.cls-3{fill:#696e74;}.cls-4{fill:#bfbfc0;}</style></defs><title>overwatch_icons-all_heroes</title><g id="Hanzo"><rect class="cls-1" width="151.15" height="151.15" rx="14.12" ry="14.12"/><path class="cls-2" d="M85.81,111.45c-3.5,0-6,2.38-9.13,2.38s-5.62-2.38-9.12-2.38-8.75,5.38-8.75,5.38l-1,5.25-4.88-.63,18.13,24.38,2.12-3.38,3.5,6.25,3.5-6.25,2.13,3.38,18.12-24.38-4.87.63m-2.88.33c-.24,3.92-4,9.15-6.08,11.74a2.39,2.39,0,0,1-3.13.54,32.2,32.2,0,0,1-4.76-3.53,3,3,0,0,0-4,0,32.73,32.73,0,0,1-4.76,3.53,2.39,2.39,0,0,1-3.13-.54c-2.07-2.59-5.84-7.82-6.09-11.74-.33-5.42,4.09-5.21,7-6.13,1.67-.52,4.37.26,6.38,1a7.31,7.31,0,0,0,5.25,0c2-.77,4.71-1.55,6.37-1"/><path class="cls-3" d="M34.68,123.89S34,110.08,39.2,90.7L32,82.33h5S31.2,76.7,30.33,71.08L39.2,72a9.3,9.3,0,0,1-4.43-7.75S40.2,69,43,69.2c0,0-4.75-17.12,17.13-27l1.13-.49c3-1.26-15.92-16.75-13.13-17.26,6.25,1.38,15.5-1.37,17.37,3.75.73-.33-.31-8,.75-8.12s1.59,5,2.38,4.68C73.45,10.2,88.41,6.49,89.33,6.45,90.77,21.2,86.11,22.2,87.7,27.58c.77,2.57,3.75-5,15.38-7.13C99.58,34.2,93.93,31.82,92.7,36.08c-.73,2.53,7.57.71,8.75.62-1.87,3.13-8,5.22-7.1,5.65A35.83,35.83,0,0,1,102,47c2.5,2.13,9.25,10.13,9.13,22.13A29.9,29.9,0,0,0,118,64.83s.38,3.87-4.37,7.37c0,0,6.37.63,8.75-1.5,0,0,.92,6.33-6,11.88a9.84,9.84,0,0,0,5.21-1.25s-1.08,5.83-8.25,10.58a14.54,14.54,0,0,0,5.17-1.67s-2.84,10.34-15.25,15.75c0,0,3-16.33.66-28.66s-6-16.5-11.21-14.42-10.87,8.33-15.45,8.33-11.67-5.83-11.67-5.83,7.08-13.33,9.17-13.33,3.91,11.66,3.91,11.66.5-14.33-2.83-15.41S61.25,66.41,61.25,66.41l-12.75,22,1.25,16.92a8.85,8.85,0,0,1-6.67-6.25S36.39,118,35.77,131.33C35.77,131.33,34.71,125.26,34.68,123.89Z"/><path class="cls-4" d="M39.2,90.7,32,82.33h5S31.2,76.7,30.33,71.08c0,0,7.58,8.58,10.92,10.91C41.25,82,41.5,89.16,39.2,90.7Z"/><path class="cls-4" d="M122.33,70.7s.92,6.33-6,11.88a9.84,9.84,0,0,0,5.21-1.25s-1.08,5.83-8.25,10.58a14.54,14.54,0,0,0,5.17-1.67s-2.84,10.34-15.25,15.75a105.27,105.27,0,0,0,1.35-23.3S118.08,75.33,122.33,70.7Z"/><path class="cls-4" d="M43.08,99.08c-.54,5.85,6.67,6.25,6.67,6.25L48.5,88.41S43.5,94.58,43.08,99.08Z"/></g></svg>