<svg xmlns="http://www.w3.org/2000/svg" viewBox="0 0 151.15 151.15"><defs><style>.cls-1{fill:#7dc243;}.cls-2{fill:#e5d92e;}.cls-3{fill:#626930;}.cls-4{fill:#6e653a;}.cls-5{fill:#51a146;}</style></defs><title>overwatch_icons-all_heroes</title><g id="Lucio"><rect class="cls-1" width="151.15" height="151.15" rx="14.21" ry="14.21"/><path class="cls-2" d="M105.47,104.34V97s13.61,3.4,13.61,10.42V126.3s-.92,12.74-12.63,15c-2,.39-3.14-1-3.11-3.06.06-4-1.53-10,3.23-10Z"/><path class="cls-3" d="M106.4,99.15a28.72,28.72,0,0,1-2.21,3.66c-1.19,1.62-1.45,2.73-1.45,5.53s1.83,1.45,1.83,5.11v20.17s3.62.09,3.62-3.32V103.15a5,5,0,0,0-1-3Z"/><path class="cls-2" d="M21.76,84.11a5.87,5.87,0,0,0-4.08,5.45c-.34,4.51-1.19,11.66.85,13.53s8.09,5.28,12.34,2.72,5-6.13,4.85-15.57c0,0,7,.51,8.85-3.07s2.64-13,.68-17.78S21.76,84.11,21.76,84.11Z"/><path class="cls-2" d="M130.46,84.11a5.87,5.87,0,0,1,4.09,5.45c.34,4.51,1.19,11.66-.85,13.53s-8.09,5.28-12.34,2.72-5-6.13-4.85-15.57c0,0-7,.51-8.85-3.07s-2.64-13-.69-17.78S130.46,84.11,130.46,84.11Z"/><path class="cls-4" d="M119,52s.59-20.08-8.17-30.46S100.45,10.3,92.28,10.3s-15.83,11-15.83,11-6.22-11-15.58-11S43.42,18.81,39.68,27.58,35.25,43.32,34,52.68c0,0-4.68,5.11-8.77,14.73S18.15,83.32,22,86.3s12.42,4.26,13,1.28,2.72-13.79,4.51-15.41,5.53.51,6.47-1-.92-7.4,2.35-13,8.46-7.23,10.24-5.7,4.77,4.17,4.34,11.66S62.57,71.83,58,74s-6.47,5.19-6.64,7.24.51,3.83-.77,4.51a8.87,8.87,0,0,0-5.36,7.74c-.25,5.19.6,8.17,2.47,10.81a34,34,0,0,1,3.15,5.7s0-6.13,1.19-6.89,1.62.51,1.53-4.51-.51-5.88.51-6.13,7.32,1.62,7.75.25S63,87.92,60.7,87.07s-5.11-2-4.94-3.41S59,79.32,59,79.32s-1.19,2.9-.6,4.34,6.13,3.41,7.15,4.85,1.79,2,3.07,2,1.53-3.66,2.12-5.27,2.13-5.28,1.2-5.88-3.15-.59-3.32-2,1.95-2.72,1.95-2.72S69,77.37,71,77.71s3.57.85,3.06,2.38.68,12.85.68,12.85,4.43-3.74,6.9-6,4.93-3,4.59-3.91-3.66-6-3.66-6,2.88.68,3.69,1.78,4.06,3.58,1.85,5.11-3.92,3.66-4.17,5.79-.09,4.34,2.55,2.21,9.36-7.83,10.81-8.17-.6,2.81-2,4-1.28,4.93-.6,6,3.66-3,5-1.7.18,10.81.94,11.83,4.85-3.66,5-6.81.43-7.57-2-9.11-1.87-5-2.38-7.06-5.79-4.85-7.74-5.79a7.71,7.71,0,0,1-4.26-7.4c.17-4,0-9,2.47-13.45s8.6-1.27,11.4,1.62,3.24,4.17,3.58,6.72-2,8.85,2.3,9.19,4.85-1.61,6,2.56.77,14.29,5.36,14.29,11.23.6,12-2.72S128.87,66.73,119,52ZM63.43,38.06c-4.75-2.57-8.37-2.48-10-2.25a.7.7,0,0,1-.79-.83c.34-1.84,1.61-5.53,6.34-5.53s5.46,5.49,5.48,8A.71.71,0,0,1,63.43,38.06Zm36.16-2.25c-1.61-.23-5.23-.32-10,2.25a.71.71,0,0,1-1-.63c0-2.49.62-8,5.48-8s6,3.69,6.35,5.53A.71.71,0,0,1,99.59,35.81Z"/><path class="cls-4" d="M44.7,101.45s-3,4.77-.85,7.32a34.77,34.77,0,0,0,4.94,4.68S49.72,107.92,44.7,101.45Z"/><path class="cls-5" d="M74.18,66c-8.5,0-11.13,3.16-11.93,4.81a1.75,1.75,0,0,1-1.57,1h0A1.76,1.76,0,0,1,58.91,70V62.6a1.78,1.78,0,0,1,.3-1c1.09-1.56,5.21-6.34,15.21-6.34H77c10,0,14.09,4.78,15.15,6.34a1.78,1.78,0,0,1,.31,1V70a1.76,1.76,0,0,1-1.77,1.76h0a1.72,1.72,0,0,1-1.57-1C88.35,69.15,85.74,66,77.27,66Z"/><path class="cls-5" d="M78,109l22.87.84a3.54,3.54,0,0,1,3.29,2.62,23.79,23.79,0,0,1,0,10.74c-1.79,8.77-15.15,6.3-17.53,3.24s-10.22-2.64-10.22-2.64h-1s-7.83-.43-10.21,2.64-15.74,5.53-17.53-3.24a23.79,23.79,0,0,1,0-10.74,3.52,3.52,0,0,1,3.29-2.62L73.8,109Q75.9,108.9,78,109Z"/></g></svg>