<svg xmlns="http://www.w3.org/2000/svg" viewBox="0 0 151.15 151.15"><defs><style>.cls-1{fill:#7a2b85;}.cls-2{fill:#353b41;}.cls-3{fill:#ee2e2a;}</style></defs><title>overwatch_icons-all_heroes</title><g id="Widowmaker"><rect class="cls-1" width="151.15" height="151.15" rx="14.07" ry="14.07"/><path class="cls-2" d="M89.35,13.06A17.85,17.85,0,0,0,68,13.35C57.76,21.24,43.58,33.8,35.37,44.6c-13.13,17.25-1.75,29,2.25,32.25,2.11,1.72,5.36,2.25,8,2.37a10.46,10.46,0,0,1,7.23,3.39c5.33,5.85,16.43,17,23.8,16.87,10-.13,11.12-1.63,15.87-6,3.17-2.92,10.06-8.78,14.3-12.36A10.72,10.72,0,0,1,114,78.66c4.77.1,12.68-2.24,13.28-18.56S103.67,23.45,89.35,13.06Z"/><path class="cls-2" d="M142.76,80.35c-1.25-5-9.38-12.87-9.38-12.87s-11,15.62-18.12,14.75-7.5.5-11.88,4S84.88,102,84,105.1H72.24c-.87-3.12-15-15.37-19.37-18.87s-4.75-4.88-11.88-4S22.87,67.48,22.87,67.48s-8.13,7.87-9.38,12.87S12,86.73,17.87,99.48s11.37,22.75,22.25,27.12,12.37-2.25,20.5-8.12,11.87-8.13,11.87-8.13H83.76s3.75,2.25,11.87,8.13,9.63,12.5,20.5,8.12,16.38-14.37,22.25-27.12S144,85.35,142.76,80.35Z"/><circle class="cls-3" cx="78.24" cy="77.48" r="12.63"/><circle class="cls-3" cx="50.87" cy="59.91" r="5.94"/><circle class="cls-3" cx="105.38" cy="59.91" r="5.94"/><circle class="cls-3" cx="51.56" cy="104.42" r="10.44"/><circle class="cls-3" cx="25.49" cy="86.85" r="5.75"/><circle class="cls-3" cx="105.23" cy="104.19" r="10.44"/><circle class="cls-3" cx="131.29" cy="86.62" r="5.75"/></g></svg>