<svg xmlns="http://www.w3.org/2000/svg" viewBox="0 0 151.15 151.15"><defs><style>.cls-1{fill:#403730;}.cls-2{fill:#231f20;}.cls-3{fill:#ed1c24;}.cls-4{fill:#fff;}</style></defs><title>overwatch_icons-all_heroes</title><g id="Doomfist"><rect class="cls-1" width="151.15" height="151.15"/><path class="cls-2" d="M70.77,54.89l-6.17,5s-13-10.16-28-8.66C36.6,51.23,40.43,42.89,70.77,54.89Z"/><path class="cls-2" d="M29.43,26a2.32,2.32,0,0,0-3.56-1.54c-2.95,1.93-7.1,5.65-7.1,11.24,0,8.66,3.33,34.66,3.33,34.66l9.32,29.18a45,45,0,0,0,7,13.49l15.26,20.17s-1.34-9.74-9.83-20.1a10,10,0,0,1-2.26-5.47c-.43-5.25-1.93-15.79-7.1-19.54a9.15,9.15,0,0,1-3.69-5.47c-1.63-7.71-4.52-24.16-2-34.24A56.32,56.32,0,0,0,29.43,26Z"/><rect class="cls-2" x="14.95" y="37.16" width="2.31" height="23.13"/><path class="cls-3" d="M20.1,31.56a16.37,16.37,0,0,0-3.33,4.67v24.5s1,9.16,5.83,10C22.6,70.73,17.27,51.89,20.1,31.56Z"/><path class="cls-4" d="M27.87,63.87a1.67,1.67,0,0,1,.39-.62c1.33-1.43,7.59-7.44,13.51-1.52,0,0,2.31,2.26-1.88,3-4.9.86-7.87,4.12-8.31,5.56a8.24,8.24,0,0,1-1.46,1.49c-1,.77-1.46-.54-1.84-1.71C27.76,68.47,27.16,65.89,27.87,63.87Z"/><path class="cls-4" d="M31.71,75.65C36,71.18,47,61.4,56.89,66.1c0,0-17.08,12.63-20.67,17.25-3.13,4-6.08,3.6-6.41-2.57A6.87,6.87,0,0,1,31.71,75.65Z"/><path class="cls-4" d="M62.52,119.35S47.35,129.6,53.68,134.6s6.09,1.88,6.09-1.37S62.52,119.35,62.52,119.35Z"/><path class="cls-2" d="M83.52,54.89l6.16,5s13-10.16,28-8.66C117.68,51.23,113.85,42.89,83.52,54.89Z"/><path class="cls-2" d="M124.85,26a2.32,2.32,0,0,1,3.56-1.54c3,1.93,7.11,5.65,7.11,11.24,0,8.66-3.34,34.66-3.34,34.66l-9.32,29.18a45,45,0,0,1-7,13.49L100.6,133.23s1.34-9.74,9.83-20.1a10,10,0,0,0,2.26-5.47c.43-5.25,1.93-15.79,7.1-19.54a9.15,9.15,0,0,0,3.69-5.47c1.63-7.71,4.52-24.16,2-34.24A56.17,56.17,0,0,1,124.85,26Z"/><rect class="cls-2" x="137.02" y="37.16" width="2.31" height="23.13"/><path class="cls-3" d="M134.18,31.56a16.51,16.51,0,0,1,3.34,4.67v24.5s-1,9.16-5.84,10C131.68,70.73,137,51.89,134.18,31.56Z"/><path class="cls-4" d="M126.41,63.87a1.67,1.67,0,0,0-.39-.62c-1.33-1.43-7.59-7.44-13.5-1.52,0,0-2.32,2.26,1.87,3,4.9.86,7.88,4.12,8.31,5.56a8.24,8.24,0,0,0,1.46,1.49c1,.77,1.46-.54,1.84-1.71C126.52,68.47,127.12,65.89,126.41,63.87Z"/><path class="cls-4" d="M122.57,75.65c-4.31-4.47-15.3-14.25-25.18-9.55,0,0,17.08,12.63,20.67,17.25,3.13,4,6.08,3.6,6.41-2.57A6.83,6.83,0,0,0,122.57,75.65Z"/><path class="cls-4" d="M91.77,119.35s15.16,10.25,8.83,15.25-6.08,1.88-6.08-1.37S91.77,119.35,91.77,119.35Z"/><path class="cls-4" d="M101.14,75.46C98,70.69,93,70.85,88,65.59a18.34,18.34,0,0,0-10.88-5.7,18.32,18.32,0,0,0-10.87,5.7c-5,5.26-10,5.1-13.13,9.87S36.14,86,37.89,98.1a156.35,156.35,0,0,0,19-14.37C66.27,75.35,73,68.1,77.14,68.1S88,75.35,97.39,83.73a157.24,157.24,0,0,0,19,14.37C118.14,86,104.27,80.23,101.14,75.46Z"/></g></svg>