<svg xmlns="http://www.w3.org/2000/svg" viewBox="0 0 165.91 165.91"><defs><style>.cls-1{fill:#f79520;}.cls-2{fill:#fff;}.cls-3{fill:#321910;}</style></defs><title>overwatch_icons-all_heroes</title><g id="Tracer"><rect class="cls-1" width="165.47" height="165.91"/><path class="cls-2" d="M122.23,112.37c-1-3.58-7.17-2.67-10-.83s-11.17,12.08-19.68,12.08S75,112.87,75,112.87s-2.5-1.33-8.17-1.75-3.92,6.33-3.92,15.08,5,18.09,8.09,20.17,8.41,1.67,12.75-1.83a29.12,29.12,0,0,1,5.6-3.53,8.44,8.44,0,0,1,8.18.4c3.64,2.33,7.06,6.21,12.13,6.22,7.25,0,8.84-6.68,11.09-11.26S123.23,116,122.23,112.37Zm-5,22c-1.88,5.62-3.13,6.87-7.5,7.44s-11.63-4.69-13.5-6.19S92.21,132,86,137.2c-5.74,4.85-10.79,6.3-14,5.25-5.13-1.66-6.25-15.62-6.25-19.62s2.12-10.13,10.5-1.25,15.37,7.75,15.37,7.75c10,0,9.38-1.63,14.38-5.38s7.75-7.12,11.25-6.93S119.14,128.7,117.27,134.33Z"/><path class="cls-3" d="M130.39,70.45a54.89,54.89,0,0,0-8.25-20l2.5,10s-5.75-5-15.75-14.5-31-20.5-45.5-26S39.64,3,39.64,3s5.75,16.25,8.25,27.13S71.27,51.83,71.27,51.83c-9.38-2.5-21.25-13-21.25-13,3.62,6.87,18.75,20.62,18.75,20.62s-4.63-4.12-25.25-6.62S7.89,34.7,7.89,34.7s2.88,5.63,18.75,25S52.89,77.58,52.89,77.58c-15.62,6.5-45-3.13-45-3.13S16,82.33,24.77,90.08,40.39,98.2,48.89,101.7s4.88,9.38-2.25,16.13a23.58,23.58,0,0,0-7,16,123.81,123.81,0,0,1,16.88-10.71v18.65s1.31-10.38,2.75-9.82c1,.39,1.15-6.53,1.15-10.81,8.51-4.1,18.67-7.68,28.6-7.94,24-.62,35.12-10,35.12-10-1,7.13,1,34.75,1,32.75s13.25-51,13.25-51S132.64,82.2,130.39,70.45Z"/></g></svg>