<svg xmlns="http://www.w3.org/2000/svg" viewBox="0 0 151.15 151.15"><defs><style>.cls-1{fill:#070909;}.cls-2{fill:#fff;stroke:#231f20;stroke-miterlimit:10;stroke-width:0.25px;}</style></defs><title>overwatch_icons-all_heroes</title><g id="Reaper"><rect class="cls-1" width="151.15" height="151.15"/><path class="cls-2" d="M120.22,61.44A11.89,11.89,0,0,1,119.91,49l4.35-7.53L112.1,28.66S106.76,7.33,75.26,7.33,37.1,29.83,37.1,29.83L26.26,42.33l4.5,7.29a11.88,11.88,0,0,1,0,12.43l-4.54,7.44,8.58,9.9a9.7,9.7,0,0,0,5.06,3.09c3.9.94,10.68,3.6,12.2,10.85,2.16,10.33,7.33,23,8.66,29.16a65,65,0,0,1,1.29,10.85,4,4,0,0,0,1.32,2.81L73.12,145a3.18,3.18,0,0,0,4.28,0l3-2.75.62-2.9,2.89-.32,4-3.65a4,4,0,0,0,1.3-3c-.07-3.69.1-12.33,2.91-18.71,3.66-8.33,4.16-14.67,7.5-22.5a1,1,0,0,1,0-.1,24,24,0,0,0-1-5.76s1.22.7,2.08,3.51c2.67-4.62,6.39-6.75,10.36-7.26a10.15,10.15,0,0,0,6.29-3.17l8-8.89ZM78.51,53a6.6,6.6,0,0,0,1.94,2.32,6.78,6.78,0,0,1,2,2.32A3.94,3.94,0,0,1,78.51,53ZM58.76,75.26C51,76.64,44.26,73.2,41.82,69a23,23,0,0,1-2.75-7.93c-.21-2.48,1.67-4.3,4.07-3.63,2.71.76,7.35,2.7,9.81,5.31,4.81,5.13,12.19,5,12.19,5S66.57,73.89,58.76,75.26ZM84,102.51c-2.81,11.57-4.25,14.07-5.88,16.44s-3.93,3.13-5.5-.31-9.43-20-6.42-31.82a.5.5,0,0,1,1,0c1.27,4.3,4.85,16.14,7,20.94a1.09,1.09,0,0,0,2,0c1.88-4.38,6.29-14.9,7.73-20.33a.5.5,0,0,1,1,0C85.35,89.89,85.81,94.86,84,102.51Zm28.13-41.12a22.8,22.8,0,0,1-2.75,7.94c-2.44,4.19-9.12,7.63-16.94,6.25l-.8-.22a12,12,0,0,0,.63,1.51A11.12,11.12,0,0,0,95.11,80a6,6,0,0,1-3.57-2.5A8.13,8.13,0,0,1,90.21,75,6,6,0,0,1,86,68.08a16.73,16.73,0,0,0,2.37-.2c-.24-1.49-.19-3.13-.88-4.55a4.39,4.39,0,0,1,0-4.34,10.63,10.63,0,0,0,.75,4.16c.75,1.41.4,2.7.89,4.64a17.76,17.76,0,0,0,9.06-4.71c2.45-2.61,7.1-4.56,9.81-5.31C110.42,57.1,112.3,58.92,112.08,61.39Z"/></g></svg>