<svg xmlns="http://www.w3.org/2000/svg" viewBox="0 0 152.33 151.15"><defs><style>.cls-1{fill:#1b71af;}.cls-2{fill:#50c6db;}.cls-3,.cls-5{fill:#fff;}.cls-3{stroke:#231f20;stroke-miterlimit:10;stroke-width:0.13px;}.cls-4{fill:#231f20;}</style></defs><title>overwatch_icons-all_heroes</title><g id="Symmetra"><rect class="cls-1" x="1.18" width="151.15" height="151.15"/><path class="cls-2" d="M40.33,68.77h1.15a3.09,3.09,0,0,1,1.72.51C46.46,71.43,60,79.6,76.45,79.6s31.69-8.66,35-10.57a3.22,3.22,0,0,1,1.6-.43h0a3.15,3.15,0,0,1,3.14,3c.43,8-.08,30.51-6.69,36.85-8.17,7.84-10.67,4.67-16.5,0s-16.5-5-16.5-5S65,103.1,58.28,110.1s-11.67-.33-13.33-2.5-9.74-9.92-7.76-35.92A3.15,3.15,0,0,1,40.33,68.77Z"/><path class="cls-3" d="M71.61,46.43h9.17V37.1s8.33-5.17,23.33,8.67,13.17,13.33,13.84,20,.66,28.83-4.67,38.83-11.17,11.33-10,15,5.17,6.33,8.83,4.17c0,0,2.34,5,6.84.12s10.25-17.62,11.25-21.75.87-7.5-1.25-8.12c0,0,2.37-5.5,5.62-19.25s5-23.25,5-30.38-2.5-11.5-5.87-9.37-5.13,11.5-7.13,11.87-5.37-1.62-6.62,2.75-2.25,3-5.63-1.12-9.12-12.8-22.25-18.17l-1-2.21H62.82l-.62,2.21s-11.25,2-18.13,9.54S35,52.14,35,52.14s-2.13-6.75-9-5.37c0,0-5-17.13-9.38-11.5s-3.75,5.62-2.25,11.25,3.38,33.87,10,47.12c0,0-4.75,2-.75,9.75s9.13,17.88,10,20.63,4.88,3.37,7.75-.63c0,0,2.5,3.25,5.38,1.63a5.89,5.89,0,0,0,.37-9.5c-3.5-2.75-8.13-10.13-10.19-21.75S33.2,62.64,39.45,52,56.1,37.14,62.35,36.77s9.1.41,9.1.41Z"/><ellipse class="cls-4" cx="27.03" cy="63.33" rx="10.83" ry="2.42" transform="translate(-38.16 85.5) rotate(-85.67)"/><ellipse class="cls-2" cx="126.24" cy="64.52" rx="1.79" ry="6.17"/><ellipse class="cls-2" cx="26.16" cy="63.75" rx="1.79" ry="6.17"/><ellipse class="cls-4" cx="125.2" cy="63.75" rx="2.42" ry="10.83" transform="translate(-4.46 9.64) rotate(-4.33)"/><ellipse class="cls-2" cx="126.08" cy="64.16" rx="1.79" ry="6.17"/><path class="cls-5" d="M78.07,48.43H73.45l-9.75,14s3,11.13,12.06,11.13S87.82,62.39,87.82,62.39Z"/><path class="cls-4" d="M75.81,61.27l.11.14-.14.15-.11-.12.14-.17m0-6.3-5.39,6.59,5.37,6,5.42-6L75.8,55Z"/><polygon class="cls-2" points="78.69 61.43 75.84 64.6 73.02 61.45 75.85 58 78.69 61.43"/></g></svg>