<svg xmlns="http://www.w3.org/2000/svg" viewBox="0 0 151.15 151.15"><defs><style>.cls-1{fill:#efcf1c;}.cls-2{fill:#f47d20;}.cls-3{fill:#b1aca4;}.cls-4{fill:#17b3a0;}.cls-5{fill:#c9df86;}</style></defs><title>overwatch_icons-all_heroes</title><g id="Zenyatta"><rect class="cls-1" width="151.15" height="151.15" rx="14.06" ry="14.06"/><path class="cls-2" d="M108,102.67c-3.33-.09-6.45,11-11.54,11-8.33,0-11-23.72-11-23.72H68.2s-2.62,23.72-11,23.72c-5.08,0-8.21-11.06-11.54-11s-1.21,2.14.36,4.45,14.56,18.63,17.5,22.5,3.5,7.75,13.31,7.75,10.37-3.87,13.31-7.75,15.94-20.18,17.5-22.5S111.37,102.75,108,102.67Z"/><path class="cls-3" d="M116.87,79.42c-5.84,0-7.17-1-3.84-3.17s5.5-4.33,5.5-14.33-1.66-50.67-41.66-50.67S35.2,51.92,35.2,61.92s2.17,12.16,5.5,14.33,2,3.17-3.83,3.17c-5.27,0-4.69,6.12-4.53,11.35a4.25,4.25,0,0,0,2.95,4c3.41,1,8.16-.77,12.91,5.48,6.33,8.33,7,8.5,7.83,8.5s5.17.33,6-6.83A109.36,109.36,0,0,1,65.2,86.75H88.53a107.73,107.73,0,0,1,3.17,15.17c.83,7.16,5.17,6.83,6,6.83s1.5-.17,7.83-8.5c4.75-6.25,9.5-4.46,12.92-5.48a4.28,4.28,0,0,0,3-4C121.56,85.54,122.14,79.42,116.87,79.42Zm-51-18.86L55.11,69.15a1.43,1.43,0,0,1-1.65.12,6.43,6.43,0,0,1-3.08-5,1.45,1.45,0,0,1,.76-1.39l11.5-6.22a1.18,1.18,0,0,1,1.41.22l1.92,2A1.18,1.18,0,0,1,65.86,60.56Zm35.25,8.71a1.43,1.43,0,0,1-1.65-.12L88.72,60.56a1.18,1.18,0,0,1-.11-1.74l1.91-2a1.19,1.19,0,0,1,1.41-.22l11.51,6.22a1.46,1.46,0,0,1,.76,1.39A6.44,6.44,0,0,1,101.11,69.27Z"/><path class="cls-4" d="M59.4,50.15a3.27,3.27,0,0,1-.54,0,4,4,0,0,1-2.94-4.76,4.09,4.09,0,0,1,3.79-3.59,3.29,3.29,0,0,1,.54.05,4,4,0,0,1,2.94,4.75A4.09,4.09,0,0,1,59.4,50.15Z"/><path class="cls-5" d="M59.71,42.26a2.28,2.28,0,0,1,.45,0,3.47,3.47,0,0,1,2.54,4.18,3.58,3.58,0,0,1-3.3,3.17,2.28,2.28,0,0,1-.45,0,3.47,3.47,0,0,1-2.54-4.18,3.58,3.58,0,0,1,3.3-3.17m0-1h0a4.55,4.55,0,0,0-4.29,4,4.48,4.48,0,0,0,3.36,5.33,3.31,3.31,0,0,0,.62,0,4.54,4.54,0,0,0,4.29-4,4.48,4.48,0,0,0-3.36-5.33,4.32,4.32,0,0,0-.62-.05Z"/><circle class="cls-4" cx="76.87" cy="43.87" r="4.21"/><path class="cls-5" d="M76.87,40.17a3.71,3.71,0,1,1-3.71,3.7,3.71,3.71,0,0,1,3.71-3.7m0-1a4.71,4.71,0,1,0,4.71,4.7,4.71,4.71,0,0,0-4.71-4.7Z"/><ellipse class="cls-4" cx="76.87" cy="31.25" rx="4.21" ry="3.67"/><path class="cls-5" d="M76.87,28.08a3.47,3.47,0,0,1,3.71,3.17,3.76,3.76,0,0,1-7.42,0,3.47,3.47,0,0,1,3.71-3.17m0-1a4.47,4.47,0,0,0-4.71,4.17,4.74,4.74,0,0,0,9.42,0,4.47,4.47,0,0,0-4.71-4.17Z"/><ellipse class="cls-4" cx="76.87" cy="21.14" rx="2.75" ry="1.69"/><path class="cls-5" d="M76.87,20c1.24,0,2.25.53,2.25,1.18s-1,1.19-2.25,1.19-2.25-.53-2.25-1.19,1-1.18,2.25-1.18m0-1c-1.85,0-3.25.94-3.25,2.18s1.4,2.19,3.25,2.19,3.25-.94,3.25-2.19S78.72,19,76.87,19Z"/><path class="cls-4" d="M94.11,48.5a4.24,4.24,0,0,1-3.69-2.58c-1-2.1-.35-4.49,1.43-5.33a3.14,3.14,0,0,1,1.32-.29,4.24,4.24,0,0,1,3.7,2.58c1,2.1.34,4.49-1.43,5.33A3.18,3.18,0,0,1,94.11,48.5Z"/><path class="cls-5" d="M93.17,40.8a3.76,3.76,0,0,1,3.24,2.29c.88,1.86.34,3.94-1.19,4.66a2.53,2.53,0,0,1-1.11.25,3.76,3.76,0,0,1-3.24-2.3c-.87-1.85-.34-3.94,1.19-4.66a2.71,2.71,0,0,1,1.11-.24m0-1h0a3.49,3.49,0,0,0-1.53.34c-2,1-2.78,3.64-1.67,6A4.75,4.75,0,0,0,94.11,49a3.68,3.68,0,0,0,1.54-.34,3.81,3.81,0,0,0,2-2.56,5.13,5.13,0,0,0-.37-3.43,4.73,4.73,0,0,0-4.15-2.87Z"/><path class="cls-4" d="M93,37.64c-1.29,0-2.55-1.22-3.08-3A4.93,4.93,0,0,1,89.82,32a2.34,2.34,0,0,1,1.51-1.71,1.77,1.77,0,0,1,.56-.08c1.29,0,2.55,1.22,3.08,3a4.93,4.93,0,0,1,.08,2.71,2.36,2.36,0,0,1-1.51,1.71A2.1,2.1,0,0,1,93,37.64Z"/><path class="cls-5" d="M91.89,30.67c1,0,2.14,1.07,2.6,2.61.53,1.76,0,3.46-1.1,3.8a1.4,1.4,0,0,1-.41.06c-1,0-2.14-1.07-2.6-2.62-.53-1.75,0-3.45,1.1-3.79a1.4,1.4,0,0,1,.41-.06m0-1h0a2.37,2.37,0,0,0-.7.1,2.86,2.86,0,0,0-1.85,2.05,5.37,5.37,0,0,0,.08,3c.59,2,2,3.33,3.56,3.33a2.37,2.37,0,0,0,.7-.1,2.86,2.86,0,0,0,1.85-2,5.37,5.37,0,0,0-.08-3c-.59-2-2-3.33-3.56-3.33Z"/><path class="cls-4" d="M93.38,27.51a3.2,3.2,0,0,1-2.6-1.73c-.86-1.49-.64-3.17.51-3.83a1.86,1.86,0,0,1,1-.25,3.22,3.22,0,0,1,2.61,1.73,3.64,3.64,0,0,1,.5,2.14,2.1,2.1,0,0,1-1,1.68A1.9,1.9,0,0,1,93.38,27.51Z"/><path class="cls-5" d="M92.25,22.2a2.68,2.68,0,0,1,2.17,1.48c.71,1.22.57,2.63-.32,3.14a1.39,1.39,0,0,1-.72.19,2.72,2.72,0,0,1-2.17-1.48c-.71-1.23-.56-2.63.33-3.15a1.44,1.44,0,0,1,.71-.18m0-1h0a2.38,2.38,0,0,0-1.21.32c-1.39.8-1.69,2.78-.69,4.51a3.7,3.7,0,0,0,3,2,2.44,2.44,0,0,0,1.22-.32,2.64,2.64,0,0,0,1.25-2.07,4,4,0,0,0-.56-2.44,3.71,3.71,0,0,0-3-2Z"/><path class="cls-4" d="M59.74,37.55A1.75,1.75,0,0,1,59,37.4a2.12,2.12,0,0,1-1.2-1.62,4,4,0,0,1,.29-2.3,3.3,3.3,0,0,1,2.74-2.2,1.75,1.75,0,0,1,.72.15,2.1,2.1,0,0,1,1.2,1.62,4,4,0,0,1-.29,2.3A3.27,3.27,0,0,1,59.74,37.55Z"/><path class="cls-5" d="M60.85,31.78a1.23,1.23,0,0,1,.53.11c.95.4,1.24,1.87.64,3.26a2.81,2.81,0,0,1-2.28,1.9,1.23,1.23,0,0,1-.53-.11c-1-.4-1.24-1.87-.64-3.26a2.81,2.81,0,0,1,2.28-1.9m0-1h0a3.79,3.79,0,0,0-3.2,2.51,4.52,4.52,0,0,0-.32,2.59,2.64,2.64,0,0,0,1.49,2,2.23,2.23,0,0,0,.92.19,3.79,3.79,0,0,0,3.2-2.5c.83-1.94.31-3.95-1.17-4.58a2.23,2.23,0,0,0-.92-.19Z"/><path class="cls-4" d="M60.32,27.06a1.43,1.43,0,0,1-.82-.23,1.58,1.58,0,0,1-.68-1,3.15,3.15,0,0,1,.51-2.24,2.84,2.84,0,0,1,2.22-1.43,1.46,1.46,0,0,1,.82.24,1.54,1.54,0,0,1,.67,1,3.06,3.06,0,0,1-.51,2.24A2.79,2.79,0,0,1,60.32,27.06Z"/><path class="cls-5" d="M61.55,22.64a1,1,0,0,1,.55.16c.65.42.66,1.57,0,2.57a2.36,2.36,0,0,1-1.79,1.19,1,1,0,0,1-.55-.15c-.66-.42-.66-1.57,0-2.57a2.38,2.38,0,0,1,1.8-1.2m0-1h0a3.33,3.33,0,0,0-2.64,1.66,3.88,3.88,0,0,0-.64,2.05,2.22,2.22,0,0,0,.95,1.9,2,2,0,0,0,1.1.31A3.33,3.33,0,0,0,63,25.91a3.81,3.81,0,0,0,.63-2.05,2.18,2.18,0,0,0-1-1.9,2,2,0,0,0-1.09-.32Z"/></g></svg>