<svg xmlns="http://www.w3.org/2000/svg" viewBox="0 0 151.15 151.15"><defs><style>.cls-1{fill:#0d1c3d;}.cls-2{fill:#c2b9bc;}.cls-3{fill:#b24d53;}.cls-4{fill:#976271;}.cls-5{fill:none;stroke:#ed1c24;stroke-linecap:round;stroke-miterlimit:10;stroke-width:4px;}.cls-6{fill:#2b62ae;}</style></defs><title>overwatch_icons-all_heroes</title><g id="Soldier_76" data-name="Soldier 76"><rect class="cls-1" width="151.15" height="151.15"/><path class="cls-2" d="M122.64,75.75s2.13-1.88.75-11.25h3.13s-.38-7.63-2.88-11-.12-8-9-14l1.75-9h-11.5s2.5-4.63-5.62-8.75-13.13-15-13.13-15-2.87,10.5-.62,18c0,0-14.13-6.5-20.63-6.5S53.64,9.5,53.64,9.5a17.94,17.94,0,0,0,3.5,16.87S43.52,32,32.27,24.12c0,0,.62,9.25,7.25,12.63,0,0-5.25,7-6.5,13.62S24.27,61,24.27,61s2.5,3.24,5.87,2.24c0,0,2.38,5.13,0,6.63s-1.25,4.88,0,6.75,3.38,10.25,5.25,11.88v-18s5.8-5.38,5.17-10.38l4.33,1.25s-1.75-8.75,5.88-17.12l.75,5.87S61.39,39.37,68.27,39.5c0,0-.42,5.35-.42,9.1,0,0,3.79-7.35,20.67-8.35,0,0-2.13,3.5-2.13,6.37,0,0,3.8-3.54,22.68-2l3.7,14.67s.77-2.57,3-2.19c0,0-2.67,5.82,1.46,10S118.27,77,122.64,75.75Z"/><path class="cls-3" d="M98.68,106.67c-4.5,0-6.2-2-8.15-4.42l-.33-.39c-2.68-3.22-6-4.53-11.6-4.53H75.93c-5.56,0-8.92,1.31-11.6,4.53l-.33.39c-2,2.37-3.65,4.42-8.15,4.42-3.69,0-8.33-4.93-12.06-8.88-1.07-1.14-2.08-2.22-3-3.1-4-3.86-4-10.57-4-12.77v-.27c0-1.34,0-3.17,1-4.2a3.64,3.64,0,0,1,2.71-.88A18.47,18.47,0,0,1,46.66,78c11.64,4.42,28.5,5.44,29.21,5.48H78.6c.77,0,17.63-1.06,29.27-5.48A18.47,18.47,0,0,1,114,76.57a3.64,3.64,0,0,1,2.71.88c1,1,1,2.86,1,4.2v.27c0,2.2,0,8.91-4,12.77-.92.88-1.93,2-3,3.09C107,101.74,102.37,106.67,98.68,106.67Z"/><path class="cls-4" d="M114,77.57a2.84,2.84,0,0,1,2,.58c.72.74.72,2.4.71,3.5v.27c0,2.09,0,8.48-3.71,12-.94.9-2,2-3,3.13-3.41,3.61-8.07,8.57-11.33,8.57-4,0-5.51-1.79-7.38-4l-.33-.4c-2.86-3.43-6.56-4.89-12.37-4.89H75.93c-5.81,0-9.51,1.46-12.37,4.89l-.33.4c-1.87,2.26-3.35,4-7.38,4-3.26,0-7.92-5-11.33-8.57-1.08-1.15-2.1-2.23-3-3.13-3.71-3.57-3.71-10-3.71-12v-.27c0-1.1,0-2.76.72-3.5a2.83,2.83,0,0,1,2-.58A17.71,17.71,0,0,1,46.31,79c11.77,4.48,28.79,5.5,29.51,5.55h2.89c.72,0,17.74-1.07,29.51-5.55A17.72,17.72,0,0,1,114,77.57m0-2a19.31,19.31,0,0,0-6.53,1.51C95.89,81.5,78.6,82.5,78.6,82.5H75.93S58.64,81.5,47,77.08a19.3,19.3,0,0,0-6.54-1.51c-4.93,0-4.71,4.2-4.71,6.35,0,2.83.16,9.5,4.33,13.5s10.5,12.25,15.75,12.25S63,105,65.1,102.5s4.83-4.17,10.83-4.17H78.6c6,0,8.75,1.67,10.83,4.17s4,5.17,9.25,5.17,11.58-8.25,15.75-12.25,4.33-10.67,4.33-13.5c0-2.15.22-6.35-4.72-6.35Z"/><path class="cls-5" d="M42.16,85.63S49,91.42,76.93,91.42c26.84,0,36-5.75,36-5.75"/><path class="cls-6" d="M45.72,132.14,30.53,108.39a17.12,17.12,0,0,1-2.67-8.32l-.93-17.15s5.67-8.34,6.17-.84c.3,4.54,2.07,7.13,3.42,8.46a5.06,5.06,0,0,1,1.53,3.67l-.18,10a17.1,17.1,0,0,0,2.87,9.83l4.86,7.29a4.93,4.93,0,0,1,.83,2.74v7.86A.38.38,0,0,1,45.72,132.14Z"/><path class="cls-6" d="M108.26,131.52l15.2-23.76a17.19,17.19,0,0,0,2.67-8.31l.93-17.16s-5.67-8.33-6.17-.83c-.3,4.54-2.07,7.13-3.42,8.46a5,5,0,0,0-1.53,3.66l.18,10a17.15,17.15,0,0,1-2.87,9.83l-4.86,7.29a5,5,0,0,0-.83,2.74v7.86A.38.38,0,0,0,108.26,131.52Z"/></g></svg>