<svg xmlns="http://www.w3.org/2000/svg" viewBox="0 0 201.68 200.11"><defs><style>.cls-1{fill:#831619;}.cls-2{fill:#2b1112;}.cls-3{fill:#3f3518;}</style></defs><title>overwatch_icons-all_heroes</title><g id="McCree"><rect class="cls-1" width="201.68" height="200.3"/><path class="cls-2" d="M121.45,133.58c-1.66-5.33-7-7.5-7-7.5v3.34H82.79v-3.34s-5.34,2.17-7,7.5-10.5,17-10.5,17h7.5v5.84h5.33l11,11h19l11-11h5.33v-5.84H132S123.12,138.92,121.45,133.58Zm-2,9.67h-4.91v7.25l-6.75,6.75H89.45L82.7,150.5v-7.25H77.79s-1.34-10.5,4.16-10.5h33.34C120.79,132.75,119.45,143.25,119.45,143.25Z"/><path class="cls-2" d="M68.62,137.75s-2.17-3.17-2.17-9.5V107.42s3,1,3-6.67-18.83-5.5-18.83-5.5-3.83,7.17-14.17,8.33l13.84-.83a5.63,5.63,0,0,1-3,5.33c-3.34,1.67-4.67,5.17-3.84,9.67,0,0,1.84-5.83,5.5-4.17,0,0-3,4.25-1,11.92,0,0,3.75-9.17,8.09-6.25C56,119.25,51.2,131.92,68.62,137.75Z"/><path class="cls-2" d="M132,113.33s-.33,13.75-2.46,18.5-2.12,6.88-2.12,6.88,3.87-4,3.62-1a36.39,36.39,0,0,1-1.33,6.58s7.21-4.12,9-7.5,4-1.29,4,.92,5,3.71,5,3.71-5.25-9.88.62-6.5A54.85,54.85,0,0,0,161,140s-17.12-12.83-12.75-23.6S132,113.33,132,113.33Z"/><polygon class="cls-2" points="90.18 144.33 98.5 152.65 106.78 144.37 90.18 144.33"/><path class="cls-3" d="M177.81,92.33c-9.06-2.14-26.5,2.5-35.5-2.5-2-1.1-3.37-3.49-4.32-6.53a50.83,50.83,0,0,1-5.43,5.91c.77-1.54,2.73-7.73,4.11-12.25a106.89,106.89,0,0,1-.32-19.28,7.06,7.06,0,0,0-3.2-6.39L110.61,36.72A16.41,16.41,0,0,0,96.23,35L68.56,44.76a7,7,0,0,0-4.48,4.89,44.42,44.42,0,0,1-5,12.38v16.3C57.47,77,56.69,70.54,56.33,66c-3.16,4-6.4,6.35-8.39,6.94-4.25,1.25-8.25,1.5-19.13-.38s-16-1.75-18.5.38-.5,8.5,9.13,14.75,59.75,20.87,74.12,25.62,62.5,9,80,8.13,24-5.5,25.13-12.75S188.94,95,177.81,92.33ZM70.19,84.46s-2.63-16.38-2-18,3.25-1,3.5,1.5,1.87,14.62,1.87,16.5A1.69,1.69,0,0,1,70.19,84.46Zm6.62.65s-2.63-16.38-2-18,3.25-1,3.5,1.5,1.87,14.62,1.87,16.5A1.69,1.69,0,0,1,76.81,85.11Zm21.31,1.6a12.2,12.2,0,1,1,11.69-12.19A11.95,11.95,0,0,1,98.12,86.71Zm19.77,4.37a1.69,1.69,0,0,1-3.37,0c0-1.87,1.62-14,1.87-16.5s2.88-3.12,3.5-1.5S117.89,91.08,117.89,91.08Zm6.62-.65a1.69,1.69,0,0,1-3.37,0c0-1.87,1.62-14,1.87-16.5s2.88-3.12,3.5-1.5S124.51,90.43,124.51,90.43Z"/></g></svg>