<svg xmlns="http://www.w3.org/2000/svg" viewBox="0 0 151.15 151.15"><defs><style>.cls-1{fill:#253b7e;}.cls-2{fill:#3362a0;}.cls-3{fill:#bbc8c3;}.cls-4{fill:#3c4041;}.cls-5{fill:#eee055;}.cls-6{fill:#edde49;}.cls-7{fill:#f69d26;opacity:0.67;}</style></defs><title>overwatch_icons-all_heroes</title><g id="Pharah"><rect class="cls-1" width="151.15" height="151.15" rx="14.37" ry="14.37"/><path class="cls-2" d="M77.83,74H32.26s-.51-4.15,0-17A42.35,42.35,0,0,1,44.77,28c4.89-4.91,15.66-15.15,21-20.21a10.85,10.85,0,0,1,7.46-2.95h4.6Zm0,0h45.58s.51-4.15,0-17A42.35,42.35,0,0,0,110.9,28C106,23.13,95.24,12.89,89.9,7.83a10.85,10.85,0,0,0-7.46-2.95H77.83Z"/><path class="cls-3" d="M77.83,136.28H67.28l-23.15-24v-7.19L31,94.07,28.47,41s1.36-4.76,3.28-1.13,1.59,11.05,2,16.47S48.34,89.05,48.34,89.05a94.07,94.07,0,0,1,1.28,14s7.53,2.3,18.26,26c0,0,3.19-2.93,10-2.93m0,10.08H88.39l23.15-24v-7.19l13.1-11L127.2,41s-1.37-4.76-3.28-1.13-1.6,11.05-2,16.47-14.62,32.75-14.62,32.75a94.79,94.79,0,0,0-1.27,14s-7.53,2.3-18.26,26c0,0-3.19-2.93-10-2.93"/><path class="cls-4" d="M40.22,84.71H47a0,0,0,0,1,0,0v56.51a3.4,3.4,0,0,1-3.4,3.4h0a3.4,3.4,0,0,1-3.4-3.4V84.71A0,0,0,0,1,40.22,84.71Z"/><rect class="cls-5" x="39.54" y="102.94" width="8.51" height="27.51" rx="2.09" ry="2.09"/><path class="cls-4" d="M106.47,84.71h6.81a0,0,0,0,1,0,0v56.51a3.4,3.4,0,0,1-3.4,3.4h0a3.4,3.4,0,0,1-3.4-3.4V84.71A0,0,0,0,1,106.47,84.71Z"/><rect class="cls-5" x="105.79" y="102.94" width="8.51" height="27.51" rx="2.09" ry="2.09"/><path class="cls-6" d="M77.83,110.37H75.57S62.45,92.68,60,90.83,48.47,87.51,39,87.51c0,0-8.17-8.23-8.17-29.61h5s1.66-6.13,5.11-8.94V36.13A138.71,138.71,0,0,1,77.83,6.83Zm0,0h2.26S93.22,92.68,95.64,90.83s11.56-3.32,21.07-3.32c0,0,8.17-8.23,8.17-29.61h-5s-1.66-6.13-5.1-8.94V36.13a138.66,138.66,0,0,0-36.9-29.3Z"/><path class="cls-7" d="M76.21,110.54,54.31,52.37a9.49,9.49,0,0,1-7.62-2.9c-3.13-3.29-6-6.9-5.43-13.72l5.69-6c-.53,6.51-.75,14.49,2.16,17.56C52.37,50.8,55.31,51,55.35,51l1.12-.13L77.15,110.2Z"/><path class="cls-7" d="M75.17,110.66,42.36,67.07c-1.53,0-8-1-9.55-9.17h3c1.6,8.22,6.5,6.79,6.81,6.76H44l.9.9L76,110.07Z"/><path class="cls-7" d="M80.12,110.54,102,52.37a9.49,9.49,0,0,0,7.62-2.9c3.12-3.29,6-6.9,5.43-13.72l-5.69-6c.53,6.51.75,14.49-2.16,17.56C104,50.8,101,51,101,51l-1.12-.13L79.18,110.2Z"/><path class="cls-7" d="M81.17,110.66,114,67.07c1.53,0,8-1,9.55-9.17h-3c-1.59,8.22-6.49,6.79-6.8,6.76h-1.37l-.89.9L80.36,110.07Z"/></g></svg>