<svg xmlns="http://www.w3.org/2000/svg" xmlns:xlink="http://www.w3.org/1999/xlink" viewBox="0 0 151.15 151.15"><defs><style>.cls-1{fill:#2b323a;}.cls-2{fill:#686d76;}.cls-3{fill:url(#linear-gradient);}.cls-4{fill:#3d434e;}.cls-5{fill:none;stroke:#3d434e;stroke-miterlimit:10;}</style><linearGradient id="linear-gradient" x1="41.15" y1="121.25" x2="110" y2="121.25" gradientUnits="userSpaceOnUse"><stop offset="0" stop-color="#3d434e"/><stop offset="0.1" stop-color="#3d434e" stop-opacity="0.93"/><stop offset="0.24" stop-color="#3d434e" stop-opacity="0.72"/><stop offset="0.39" stop-color="#3d434e" stop-opacity="0.38"/><stop offset="0.52" stop-color="#3d434e" stop-opacity="0"/><stop offset="0.56" stop-color="#3d434e" stop-opacity="0.17"/><stop offset="0.67" stop-color="#3d434e" stop-opacity="0.53"/><stop offset="0.78" stop-color="#3d434e" stop-opacity="0.79"/><stop offset="0.89" stop-color="#3d434e" stop-opacity="0.95"/><stop offset="1" stop-color="#3d434e"/></linearGradient></defs><title>overwatch_icons-all_heroes</title><g id="Winston"><rect class="cls-1" width="151.15" height="151.15" rx="14.21" ry="14.21"/><path class="cls-2" d="M136.58,45.94c0-12.5-9.17-23.34-18.67-25.5s-21.66,6.33-30,12.66c-5.41,4.12-8.72,4.79-10.37,4.75-.86,0-1.73,0-2.59,0-1.65,0-5-.63-10.37-4.75-8.33-6.33-20.5-14.83-30-12.66s-18.67,13-18.67,25.5,2.17,20.66,7.5,26.16,11.5,19.34,11.17,21.84-5.83,1-5.83,8.16a46.68,46.68,0,0,0,5.5,22.5c4,7.17,3.83,8,6.66,8s3-1,5.17-4S76.25,125,76.25,125s28,.66,30.16,3.62,2.34,4,5.17,4,2.67-.83,6.67-8a46.68,46.68,0,0,0,5.5-22.5c0-7.16-5.5-5.66-5.84-8.16s5.84-16.34,11.17-21.84S136.58,58.44,136.58,45.94Z"/><path class="cls-3" d="M109.43,122.12c-9.84-4.78-18.46-4.58-27.58-4.36-1.88,0-3.82.09-5.77.09-11.08,0-19.5.76-27.74,2.56a2.59,2.59,0,0,1-.82.11s-2.76.09-2.13-2.19a.53.53,0,0,0-.71-.65,5.75,5.75,0,0,0-3.35,4.11c-1,4.06,2.75,3.09,4.06,2.59s1.67-1.52,5.44-2.44a128.21,128.21,0,0,1,25.25-2.09c2,0,3.93,0,5.81-.09,8.88-.21,17.26-.41,26.67,4.16a1,1,0,0,0,.43.1,1,1,0,0,0,.91-.56A1,1,0,0,0,109.43,122.12Z"/><path class="cls-4" d="M124,59V40.73S98.58,42,91.45,43s-7.87,6.62-7.87,6.62H69C69,45.6,61.2,43,61.2,43L29,40.73V58c0,4.75,7.75,6.5,7.75,6.5H60.83c7.5,0,8.75-9,8.75-9h13.5c0,5.87,8.37,9,8.37,9h23.13C124.33,64.48,124,59,124,59ZM56.25,61.1H35.81a3.69,3.69,0,0,1-3.69-3.68V48.54a3.69,3.69,0,0,1,3.69-3.69H56.25a8.13,8.13,0,0,1,0,16.25Zm64-3.68a3.68,3.68,0,0,1-3.68,3.68H96.08a8.13,8.13,0,1,1,0-16.25h20.44a3.69,3.69,0,0,1,3.68,3.69Z"/><path class="cls-5" d="M55.58,68.6s-1.67,2.84,1.25,5.75S59,77.94,59,77.94"/><path class="cls-5" d="M97.09,68.6s1.67,2.84-1.25,5.75-2.16,3.59-2.16,3.59"/><path class="cls-4" d="M73.86,81.73c0,.12-.14.2-.21.1-1.08-1.4-4.77-6.08-6.57-7.35-2-1.43-2.84-2.41-2.73,1.86a.21.21,0,0,1-.37.13c-1.16-1.58-4.33-6.44-1.53-9.24,3.38-3.38,4.63.37,5.88,2.25A30.72,30.72,0,0,1,73.86,81.73Z"/><path class="cls-4" d="M78,81.73c0,.12.14.2.21.1,1.09-1.4,4.77-6.08,6.57-7.35,2-1.43,2.85-2.41,2.73,1.86a.21.21,0,0,0,.37.13c1.16-1.58,4.33-6.44,1.53-9.24-3.38-3.38-4.63.37-5.88,2.25A30.72,30.72,0,0,0,78,81.73Z"/></g></svg>