<svg xmlns="http://www.w3.org/2000/svg" viewBox="0 0 151.15 151.15"><defs><style>.cls-1{fill:#b82126;}.cls-2{fill:#fbeb84;}.cls-2,.cls-3{stroke:#321910;}.cls-2,.cls-3,.cls-4{stroke-miterlimit:10;stroke-width:0.25px;}.cls-3{fill:#4f6266;}.cls-4{fill:#ef4133;stroke:#231f20;}.cls-5{fill:#d12128;}</style></defs><title>overwatch_icons-all_heroes</title><g id="Torbjorn"><rect class="cls-1" width="151.15" height="151.15"/><path class="cls-2" d="M35.39,104.2a2.38,2.38,0,0,1,.37-3.33c1.35-1.05,4-2.35,9.11-2.81,9.16-.83,11.83-.08,15,1.08S64,98.89,64,98.89s-5.66,11.59-13.33,11.42-13.33,5.83-13.33,5.83S23,104.73,23.62,99.73a26.21,26.21,0,0,1,1.66-7.09s6.71,9.52,9.84,12.65,2.44,9.06,2.44,9.06,1.15-4.19-.41-7.34A15.45,15.45,0,0,0,35.39,104.2Z"/><path class="cls-2" d="M22.54,114s-.92-3.44.77-5.31,2.68-1.69,4-.32L32.62,114Z"/><path class="cls-2" d="M39.68,116.14s5.06-4.54,9.19-4.73,4.56,2.77,3.31,4.73-6.87,5-6.87,5Z"/><path class="cls-3" d="M47,118.82l-4.52-4.53a5.38,5.38,0,0,0-3.78-1.56H23.43a5.34,5.34,0,0,0-4.68,2.75C16.81,119,13.67,125,13.12,127.7c-.81,4,4.69,9.28,11.69,13S37,142.54,43,137.41c4.29-3.66,5.34-10.75,5.59-14.5A5.31,5.31,0,0,0,47,118.82Zm-25.2,4.79c-1.76,1.76-3.77,2.62-4.48,1.91s.15-2.71,1.92-4.48,3.77-2.62,4.48-1.91S23.59,121.84,21.82,123.61Zm10.85,2.32c-2.22,1.15-4.39,1.36-4.85.47s1-2.54,3.18-3.69,4.38-1.35,4.85-.47S34.88,124.78,32.67,125.93Zm8.82,5.73c-2.45.46-4.59,0-4.77-.95s1.65-2.16,4.11-2.62,4.59,0,4.77,1S44,131.2,41.49,131.66Z"/><path class="cls-2" d="M129.28,72.39c-9-12.5-11.08-13.33-11.08-13.33s12.08-9.17,11.25-16.67H113.2S112,36,107.78,41.56s-5.08,5.83-7.66,5.83-13.75-1.08-13.75-1.08,5.41,4.42,5.16,7.33l-8.75-9.83H71.62l-8.75,9.83C62.62,50.73,68,46.31,68,46.31s-11.16,1.08-13.75,1.08-3.5-.25-7.66-5.83-5.42.83-5.42.83H25c-.83,7.5,11.25,16.67,11.25,16.67s-2.08.83-11.08,13.33,8.41,28.92,8.41,28.92S36,97.64,47,96.56s7.5,1.25,17.75,1.25S77.2,84.06,77.2,84.06s2.17,13.75,12.42,13.75,6.66-2.33,17.75-1.25,13.5,4.75,13.5,4.75S138.28,84.89,129.28,72.39Z"/><path class="cls-2" d="M119,104.2a2.37,2.37,0,0,0-.37-3.33c-1.35-1.05-4-2.35-9.11-2.81-9.16-.83-11.83-.08-15,1.08s-4.16-.25-4.16-.25S96,110.48,103.7,110.31,117,116.14,117,116.14s14.42-11.41,13.75-16.41a26.21,26.21,0,0,0-1.66-7.09s-6.71,9.52-9.84,12.65-2.43,9.06-2.43,9.06-1.16-4.19.4-7.34A15.45,15.45,0,0,1,119,104.2Z"/><path class="cls-2" d="M131.87,114s.91-3.44-.77-5.31-2.69-1.69-4-.32-5.32,5.63-5.32,5.63Z"/><path class="cls-2" d="M114.72,116.14s-5.06-4.54-9.19-4.73-4.56,2.77-3.31,4.73,6.88,5,6.88,5Z"/><path class="cls-3" d="M105.83,122.91c.24,3.75,1.29,10.84,5.58,14.5,6,5.13,11.19,7.07,18.19,3.32s12.5-9,11.68-13c-.55-2.75-3.69-8.71-5.63-12.22a5.33,5.33,0,0,0-4.67-2.75H115.69a5.34,5.34,0,0,0-3.78,1.56l-4.53,4.53A5.26,5.26,0,0,0,105.83,122.91Zm24.84-3.78c.7-.71,2.71.15,4.47,1.91s2.63,3.77,1.92,4.48-2.71-.15-4.48-1.91S130,119.84,130.67,119.13Zm-12.11,3.11c.46-.88,2.63-.67,4.84.47s3.64,2.81,3.18,3.69-2.63.68-4.84-.47S118.1,123.13,118.56,122.24Zm-9.76,6.81c.18-1,2.32-1.41,4.78-1s4.29,1.63,4.11,2.62-2.32,1.41-4.78.95S108.62,130,108.8,129.05Z"/><path class="cls-2" d="M71.49,22.48l-15-4.63,4.63-2.75L61.24,7,75.49,20.35S76.49,23,71.49,22.48Z"/><path class="cls-2" d="M82.91,22.48l15-4.63L93.28,15.1,93.16,7,78.91,20.35S77.91,23,82.91,22.48Z"/><path class="cls-2" d="M79.53,36,94.16,27.6s2.37,7.5,8.37,7.5,10-7.5,10-7.5,2.88,14.75-9.62,17.38S80.91,42.6,79.53,36Z"/><path class="cls-2" d="M74.87,36,60.24,27.6s-2.37,7.5-8.37,7.5-10-7.5-10-7.5S39,42.35,51.49,45,73.49,42.6,74.87,36Z"/><path class="cls-4" d="M71.7,27c0,3.45-3.4,5.25-7.6,5.25s-7.61-1.8-7.61-5.25c0-1.9-.49-4.61,1.13-5.75,1.33-.94,4.6-.75,6.48-.5C68.87,21.35,71.7,23.52,71.7,27Z"/><circle class="cls-5" cx="60.56" cy="25.66" r="1.94"/><ellipse class="cls-5" cx="68.12" cy="28.04" rx="1.38" ry="0.94"/></g></svg>