<svg xmlns="http://www.w3.org/2000/svg" viewBox="0 0 151.15 151.15"><defs><style>.cls-1{fill:#958d7c;}.cls-2{fill:#404144;}.cls-3{fill:#428ecc;}.cls-4{fill:#3d4142;}.cls-5{fill:#a9a392;}.cls-6{fill:#444546;}.cls-7,.cls-8{fill:#fff;}.cls-8{stroke:#231f20;stroke-miterlimit:10;stroke-width:0.13px;}</style></defs><title>overwatch_icons-all_heroes</title><g id="Ana"><rect class="cls-1" width="151.15" height="151.15" rx="14.14" ry="14.14"/><path class="cls-2" d="M129.55,78.49c-2-4.5-21.5-51-27.16-58.83S90.39,4.83,76.22,4.83s-20.5,7-26.17,14.83S24.89,74,22.89,78.49s-13.34,17.17,2.5,28.67S76.22,151,76.22,151s35-32.33,50.83-43.83S131.55,83,129.55,78.49Z"/><path class="cls-3" d="M76.22,138.83A33,33,0,0,0,101.72,123c9.17-15.33,10.17-12.83,15.5-20.33s-.17-9.17-3.83-23.33S105.39,31,76.22,31c0,0-19.42-3.41-27.29,21S37.05,75.83,37.05,93s8.63,25.63,11.75,28.75,12.63,6,22.25,6c0,0-1.62,1.25-12.5,1.25A19.76,19.76,0,0,0,76.22,138.83Z"/><path class="cls-4" d="M49.05,75.83S42.8,104.2,75.3,118c0,0,26.13-9.5,26.63-27.5S49.05,75.83,49.05,75.83Z"/><path class="cls-5" d="M76.22,42.08S49.76,43.7,49.76,68.33,70.39,105.7,71.64,105.7H80.8c1.25,0,21.88-12.75,21.88-37.37S76.22,42.08,76.22,42.08Z"/><path class="cls-6" d="M89.7,46.1A27.51,27.51,0,0,1,94,49S82.8,53.76,78.43,60.33,74.74,72,69.24,74.39,57.3,77.7,52.49,75.2s-4.06-14.5-.31-16.69,14.06-5.93,17.5-4.25,6.06,2.82,8.56,1.25S89.7,46.1,89.7,46.1Z"/><path class="cls-7" d="M62.55,105.45S45.68,96.33,45.68,79.2c0,0-3.13,2.5-11.25.63,0,0,9.37-3,10.62-9s6.25-28.5,28.75-28.5a29.74,29.74,0,0,1,9.39,1.46s-1.26,7.29-10,13.54A27.83,27.83,0,0,0,62.55,73s-1.5-9.25,6.88-17.25c0,0-15.88,8.63-15.88,26.88S62.55,105.45,62.55,105.45Z"/><path class="cls-8" d="M84.93,120.58s-2.79,5.62-8.71,5-4.79-5.25-9.42-5-1.62,5.47-9.37,5c-7.6-.41-12.08,1.75-14.84,8.32,0,.07-.14.05-.13,0,.2-2.32,1.58-13.87,9.09-20.59,8.38-7.5,14-3.77,17.13,0s11.25,1.55,11.25,1.55Z"/><path class="cls-8" d="M94.05,113.7s-1.12,9.75-7.75,8.75S76.18,116,71.55,116c0,0,3.75-6.75,13.75-5.12S94.05,113.7,94.05,113.7Z"/><path class="cls-8" d="M100.51,102.05s1.92,10.78-3.71,11S80.3,116,78.68,117.83s-8.13-.5-8.13-2.13S84.68,107,89.3,106.58,100.51,102.05,100.51,102.05Z"/><path class="cls-8" d="M98.14,97.45s-6.34,1.25-9.46,5-2.63,10.75-2.25,12.25A11,11,0,0,0,94,113.36s-.86-8,5-12.41Z"/><path class="cls-8" d="M102.68,73.89s1.87,27.56-1.25,29.81-5,.88-5.25-4.37S93.86,92,99.71,82.83c0,0-3.16,3.37-6.66,3.37A24.71,24.71,0,0,0,102.68,73.89Z"/></g></svg>